<svg width="496" height="403" viewBox="0 0 496 403" fill="none" xmlns="http://www.w3.org/2000/svg">
<path d="M268.722 391.538L271.783 394.599C273.43 392.952 275.615 392.044 277.948 392.044C280.281 392.044 282.467 392.952 284.113 394.599L287.175 391.538C284.705 389.067 281.432 387.716 277.948 387.716C274.464 387.716 271.181 389.067 268.722 391.538Z" fill="#049478"/>
<path d="M263.631 386.449L266.692 389.511C269.701 386.502 273.692 384.855 277.946 384.855C282.2 384.855 286.191 386.513 289.199 389.511L292.261 386.449C288.439 382.628 283.351 380.516 277.946 380.516C272.541 380.516 267.453 382.628 263.631 386.449Z" fill="#049478"/>
<path d="M277.947 373.327C270.621 373.327 263.727 376.177 258.544 381.361L261.605 384.422C265.965 380.062 271.771 377.655 277.947 377.655C284.123 377.655 289.918 380.062 294.289 384.422L297.35 381.361C292.178 376.177 285.284 373.327 277.947 373.327Z" fill="#049478"/>
<path d="M277.949 394.599C275.901 394.599 274.243 396.256 274.243 398.305C274.243 400.353 275.901 402.01 277.949 402.01C279.997 402.01 281.654 400.353 281.654 398.305C281.654 396.256 279.997 394.599 277.949 394.599Z" fill="#049478"/>
<path d="M289.879 174.262L292.184 176.567C293.424 175.327 295.07 174.644 296.827 174.644C298.584 174.644 300.229 175.327 301.469 176.567L303.775 174.262C301.915 172.402 299.45 171.384 296.827 171.384C294.203 171.376 291.739 172.402 289.879 174.262Z" stroke="#049478" stroke-width="0.91562" stroke-miterlimit="10"/>
<path d="M286.053 170.43L288.358 172.736C290.624 170.47 293.629 169.23 296.833 169.23C300.037 169.23 303.042 170.478 305.307 172.736L307.613 170.43C304.735 167.553 300.903 165.963 296.833 165.963C292.755 165.963 288.931 167.553 286.053 170.43Z" stroke="#049478" stroke-width="0.91562" stroke-miterlimit="10"/>
<path d="M296.836 160.549C291.318 160.549 286.127 162.695 282.224 166.598L284.529 168.904C287.813 165.621 292.185 163.808 296.836 163.808C301.486 163.808 305.851 165.621 309.142 168.904L311.447 166.598C307.544 162.695 302.353 160.549 296.836 160.549Z" stroke="#049478" stroke-width="0.91562" stroke-miterlimit="10"/>
<path d="M296.841 182.148C298.382 182.148 299.631 180.899 299.631 179.358C299.631 177.817 298.382 176.567 296.841 176.567C295.3 176.567 294.05 177.817 294.05 179.358C294.05 180.899 295.3 182.148 296.841 182.148Z" stroke="#049478" stroke-width="0.91562" stroke-miterlimit="10"/>
<path d="M403.63 232.817V242.318" stroke="#049478" stroke-width="0.91192" stroke-miterlimit="10" stroke-linecap="round" stroke-linejoin="round"/>
<path d="M398.892 237.567H408.382" stroke="#049478" stroke-width="0.91192" stroke-miterlimit="10" stroke-linecap="round" stroke-linejoin="round"/>
<path d="M61.5799 324.154V333.655" stroke="#DB7294" stroke-width="0.91192" stroke-miterlimit="10" stroke-linecap="round" stroke-linejoin="round"/>
<path d="M56.8322 328.904H66.3227" stroke="#DB7294" stroke-width="0.91192" stroke-miterlimit="10" stroke-linecap="round" stroke-linejoin="round"/>
<path d="M141.915 386.407V395.908" stroke="#DB7294" stroke-width="0.91192" stroke-miterlimit="10" stroke-linecap="round" stroke-linejoin="round"/>
<path d="M137.167 391.158H146.668" stroke="#DB7294" stroke-width="0.91192" stroke-miterlimit="10" stroke-linecap="round" stroke-linejoin="round"/>
<path d="M265.72 99.801V109.292" stroke="#DB7294" stroke-width="0.91192" stroke-miterlimit="10" stroke-linecap="round" stroke-linejoin="round"/>
<path d="M260.982 104.552H270.473" stroke="#DB7294" stroke-width="0.91192" stroke-miterlimit="10" stroke-linecap="round" stroke-linejoin="round"/>
<path d="M70.463 62.9158V72.4063" stroke="#049478" stroke-width="0.91192" stroke-miterlimit="10" stroke-linecap="round" stroke-linejoin="round"/>
<path d="M65.7153 67.6557H75.2058" stroke="#049478" stroke-width="0.91192" stroke-miterlimit="10" stroke-linecap="round" stroke-linejoin="round"/>
<path d="M119.334 224.688V234.189" stroke="#EEDA36" stroke-width="0.91192" stroke-miterlimit="10" stroke-linecap="round" stroke-linejoin="round"/>
<path d="M114.587 229.438H124.088" stroke="#EEDA36" stroke-width="0.91192" stroke-miterlimit="10" stroke-linecap="round" stroke-linejoin="round"/>
<path d="M310.423 345.859V355.349" stroke="#EEDA36" stroke-width="0.91192" stroke-miterlimit="10" stroke-linecap="round" stroke-linejoin="round"/>
<path d="M305.676 350.599H315.166" stroke="#EEDA36" stroke-width="0.91192" stroke-miterlimit="10" stroke-linecap="round" stroke-linejoin="round"/>
<path d="M222.691 106.145C224.493 106.145 225.953 104.685 225.953 102.883C225.953 101.082 224.493 99.6213 222.691 99.6213C220.89 99.6213 219.429 101.082 219.429 102.883C219.429 104.685 220.89 106.145 222.691 106.145Z" stroke="#EEDA36" stroke-width="0.91192" stroke-miterlimit="10" stroke-linecap="round" stroke-linejoin="round"/>
<path d="M73.4653 379.399C76.2447 370.219 71.0564 360.525 61.877 357.745C52.6975 354.966 43.0029 360.154 40.2234 369.333C37.444 378.513 42.6322 388.208 51.8117 390.987C60.9912 393.766 70.6858 388.578 73.4653 379.399Z" fill="#E4B0C8"/>
<path d="M67.2861 367.025H46.9221V382.321H67.2861V367.025Z" stroke="white" stroke-width="1.21589" stroke-miterlimit="10"/>
<path d="M46.9221 367.025L57.0989 376.431L67.2861 367.025" stroke="white" stroke-width="1.21589" stroke-miterlimit="10"/>
<path d="M248.945 86.0667C255.044 86.0667 259.988 81.1228 259.988 75.0243C259.988 68.9257 255.044 63.9819 248.945 63.9819C242.847 63.9819 237.903 68.9257 237.903 75.0243C237.903 81.1228 242.847 86.0667 248.945 86.0667Z" fill="#E4B0C8"/>
<path d="M255.573 70.3582H242.631V80.081H255.573V70.3582Z" stroke="white" stroke-width="1.21589" stroke-miterlimit="10"/>
<path d="M242.631 70.3582L249.102 76.3439L255.573 70.3582" stroke="white" stroke-width="1.21589" stroke-miterlimit="10"/>
<path d="M141.918 190.526L144.895 195.688L147.882 200.861H141.918H135.953L138.93 195.688L141.918 190.526Z" fill="#D96980"/>
<path d="M399.315 341.72L406.114 347.695L412.923 353.67L404.351 356.573L395.768 359.477L397.542 350.598L399.315 341.72Z" stroke="#D96980" stroke-width="1.21589" stroke-miterlimit="10"/>
<path d="M19.4095 63.1373L17.0342 71.8783L14.6695 80.6193L8.28261 74.1902L1.90631 67.7717L10.6579 65.4492L19.4095 63.1373Z" stroke="#D96980" stroke-width="1.21589" stroke-miterlimit="10"/>
<path d="M209.692 368.45C209.692 371.142 207.507 373.327 204.815 373.327C202.123 373.327 199.938 371.142 199.938 368.45C199.938 365.758 202.123 363.573 204.815 363.573C207.507 363.562 209.692 365.747 209.692 368.45Z" stroke="#D96980" stroke-width="1.21589" stroke-miterlimit="10"/>
<path d="M384.694 51.5987C384.694 55.3992 381.611 58.4817 377.811 58.4817C374.01 58.4817 370.928 55.3992 370.928 51.5987C370.928 47.7983 374.01 44.7157 377.811 44.7157C381.611 44.7157 384.694 47.7877 384.694 51.5987Z" stroke="#D96980" stroke-width="1.21589" stroke-miterlimit="10"/>
<path d="M248.302 237.018C248.302 239.436 246.339 241.389 243.932 241.389C241.514 241.389 239.561 239.425 239.561 237.018C239.561 234.601 241.525 232.648 243.932 232.648C246.339 232.648 248.302 234.601 248.302 237.018Z" fill="#D96980"/>
<path d="M389.078 390.566C389.078 392.984 387.114 394.937 384.707 394.937C382.29 394.937 380.337 392.973 380.337 390.566C380.337 388.149 382.3 386.196 384.707 386.196C387.114 386.185 389.078 388.149 389.078 390.566Z" fill="#D96980"/>
<path d="M257.583 325.98C257.583 327.426 256.411 328.587 254.975 328.587C253.529 328.587 252.368 327.416 252.368 325.98C252.368 324.544 253.539 323.372 254.975 323.372C256.421 323.372 257.583 324.544 257.583 325.98Z" fill="#E4B0C8"/>
<path d="M471.61 259.926C475.359 259.926 478.398 256.887 478.398 253.138C478.398 249.389 475.359 246.35 471.61 246.35C467.862 246.35 464.822 249.389 464.822 253.138C464.822 256.887 467.862 259.926 471.61 259.926Z" stroke="#049478" stroke-width="1.21589" stroke-miterlimit="10"/>
<path d="M23.0434 307.073C26.4192 307.073 29.1558 304.336 29.1558 300.96C29.1558 297.585 26.4192 294.848 23.0434 294.848C19.6676 294.848 16.931 297.585 16.931 300.96C16.931 304.336 19.6676 307.073 23.0434 307.073Z" stroke="#049478" stroke-width="1.21589" stroke-miterlimit="10"/>
<path d="M359.834 375.238C359.834 378.151 357.469 380.516 354.555 380.516C351.642 380.516 349.277 378.151 349.277 375.238C349.277 372.324 351.642 369.959 354.555 369.959C357.469 369.949 359.834 372.324 359.834 375.238Z" stroke="#049478" stroke-width="1.21589" stroke-miterlimit="10"/>
<path d="M30.5586 122.889C30.5586 122.889 29.3974 130.912 23.9501 131.746C18.5028 132.58 13.5094 132.221 16.5603 146.019" stroke="#EEDA36" stroke-width="1.21589" stroke-miterlimit="10"/>
<path d="M297.345 54.2483C297.345 54.2483 306.107 53.3932 308.398 58.925C310.689 64.4567 311.607 69.809 325.363 63.0104" stroke="#EEDA36" stroke-width="1.21589" stroke-miterlimit="10"/>
<path d="M339.631 179.23C339.631 181.415 337.857 183.189 335.672 183.189C333.487 183.189 331.713 181.415 331.713 179.23C331.713 177.045 333.487 175.271 335.672 175.271C337.868 175.282 339.631 177.055 339.631 179.23Z" fill="#EEDA36"/>
<path d="M129.653 57.4285C131.831 55.7564 132.241 52.6351 130.569 50.4569C128.897 48.2787 125.776 47.8684 123.597 49.5405C121.419 51.2126 121.009 54.3339 122.681 56.5121C124.353 58.6903 127.474 59.1006 129.653 57.4285Z" stroke="#D7D4FC" stroke-width="1.21589" stroke-miterlimit="10"/>
<path d="M91.29 297.551C41.6732 297.551 1.45184 259.377 1.45184 212.294C1.45184 179.009 21.5414 150.189 50.847 136.148" stroke="#C1C0FF" stroke-width="1.21589" stroke-miterlimit="10" stroke-dasharray="4.86 4.86"/>
<path d="M285.319 317.303C288.961 350.641 263.889 380.728 229.305 384.507C194.721 388.286 163.726 364.333 160.084 331.005" stroke="#C1C0FF" stroke-width="1.21589" stroke-miterlimit="10" stroke-dasharray="4.86 4.86"/>
<path d="M302.007 198.868C331.003 198.868 354.509 175.881 354.509 147.525C354.509 119.169 331.003 96.1822 302.007 96.1822C273.011 96.1822 249.505 119.169 249.505 147.525C249.505 175.881 273.011 198.868 302.007 198.868Z" stroke="#C1C0FF" stroke-width="1.04276" stroke-miterlimit="10" stroke-dasharray="4.17 4.17"/>
<path d="M170.189 233.26C202.448 233.26 228.6 207.69 228.6 176.148C228.6 144.606 202.448 119.036 170.189 119.036C137.93 119.036 111.778 144.606 111.778 176.148C111.778 207.69 137.93 233.26 170.189 233.26Z" stroke="#C1C0FF" stroke-width="1.21589" stroke-miterlimit="10" stroke-dasharray="4.86 4.86"/>
<path d="M437.729 312.436C469.359 312.436 495 288.738 495 259.504C495 230.271 469.359 206.572 437.729 206.572C406.1 206.572 380.459 230.271 380.459 259.504C380.459 288.738 406.1 312.436 437.729 312.436Z" stroke="#C1C0FF" stroke-width="1.21589" stroke-miterlimit="10" stroke-dasharray="4.86 4.86"/>
<path d="M227.274 353.236H114.664C110.137 353.236 106.46 349.569 106.46 345.032V272.556C106.46 268.029 110.128 264.352 114.664 264.352H227.274C231.802 264.352 235.478 268.02 235.478 272.556V345.032C235.478 349.56 231.802 353.236 227.274 353.236Z" fill="#D0EEDE"/>
<path d="M218.736 337.276H123.202C118.674 337.276 114.998 333.608 114.998 329.072V277.724C114.998 273.197 118.665 269.52 123.202 269.52H218.728C223.255 269.52 226.932 273.188 226.932 277.724V329.072C226.932 333.599 223.264 337.276 218.736 337.276Z" fill="white"/>
<path d="M148.455 300.485C148.455 300.485 142.383 319.622 154.79 323.851C167.206 328.08 168.592 324.579 171.356 331.186C174.111 337.793 185.167 334.942 186.22 324.772C187.273 314.603 179.771 315.392 175.866 314.866C171.962 314.34 169.356 307.162 169.391 303.424C169.435 299.704 149.859 292.693 148.455 300.485Z" fill="black"/>
<path d="M162.217 318.437C162.217 318.437 175.449 319.245 189.102 332.073C202.755 344.901 202.395 378.006 202.395 378.006L161.638 376.962L162.217 318.437Z" fill="white" stroke="black" stroke-width="1.0106" stroke-miterlimit="10"/>
<path d="M176.204 329.396C185.338 336.223 203.922 376.804 198.026 376.944C192.12 377.085 121.68 376.523 119.469 374.33C117.258 372.145 126.848 352.798 126.848 352.798C126.848 352.798 141.668 322.342 164.613 322.158C172.255 322.096 166.447 322.105 176.204 329.396Z" fill="white"/>
<path d="M138.773 354.36C138.773 354.36 132.315 372.452 133.807 374.497C135.298 376.541 182.715 377.076 186.69 376.945C190.664 376.813 183.934 348.288 180.565 340.084" stroke="#1C191B" stroke-width="1.0106" stroke-miterlimit="10"/>
<path d="M163.59 363.827C163.59 363.827 168.908 360.264 182.657 363.651C182.657 363.651 185.324 364.853 183.28 365.397C181.235 365.941 176.129 365.117 176.129 365.117C176.129 365.117 184.043 365.836 184.227 367.214C184.403 368.591 176.761 367.249 176.761 367.249C176.761 367.249 185 368.547 184.894 369.942C184.798 371.338 180.218 369.785 175.769 370.1C171.32 370.416 163.213 373.68 161.958 372.777C160.704 371.882 157.966 365.924 163.59 363.827Z" fill="white" stroke="#1C191B" stroke-width="1.0106" stroke-miterlimit="10"/>
<path d="M159.13 318.446C150.917 318.516 141.915 321.069 133.193 328.185C121.286 337.89 101.097 368.398 109.915 384.148C118.733 399.898 139.037 393.756 146.065 390.588C153.093 387.421 166.851 376.874 168.352 372.557C170.107 367.503 169.343 363.941 162.999 362.352C156.664 360.764 133.386 363.247 128.823 366.213" fill="white"/>
<path d="M159.13 318.446C150.917 318.516 141.915 321.069 133.193 328.185C121.286 337.89 101.097 368.398 109.915 384.148C118.733 399.898 139.037 393.756 146.065 390.588C153.093 387.421 166.851 376.874 168.352 372.557C170.107 367.503 169.343 363.941 162.999 362.352C156.664 360.764 133.386 363.247 128.823 366.213" stroke="black" stroke-width="1.0106" stroke-miterlimit="10"/>
<path d="M168.356 372.557C170.076 367.617 169.365 364.108 163.416 362.476C163.101 364.064 163.022 365.959 163.25 367.977C163.636 371.346 164.785 374.198 166.198 375.716C167.286 374.488 168.058 373.4 168.356 372.557Z" fill="#FFBA7B" stroke="black" stroke-width="1.0106" stroke-miterlimit="10"/>
<path d="M149.27 342.926C149.27 342.926 142.329 337.846 145.005 335.503C147.681 333.16 149.98 337.995 149.98 337.995C149.98 337.995 151.595 333.757 153.885 335.17C156.184 336.582 149.27 342.926 149.27 342.926Z" fill="#FFBA7B" stroke="#1C191B" stroke-width="1.0106" stroke-miterlimit="10"/>
<path d="M166.585 321.245C166.585 323.64 163.251 325.588 159.136 325.588C155.021 325.588 151.687 323.649 151.687 321.245C151.687 318.85 155.021 316.902 159.136 316.902C163.251 316.91 166.585 318.85 166.585 321.245Z" fill="#FFBA7B" stroke="#1C191B" stroke-width="1.0106" stroke-miterlimit="10"/>
<path d="M145.266 300.485C145.266 303.512 147.741 305.969 150.803 305.969C153.865 305.969 156.34 303.512 156.34 300.485C156.34 297.458 153.865 295.001 150.803 295.001C147.741 295.001 145.266 297.458 145.266 300.485Z" fill="white" stroke="black" stroke-width="1.0106" stroke-miterlimit="10"/>
<path d="M168.301 284.445H161.755C157.403 284.445 153.841 288.499 153.841 293.457V303.609C153.841 303.898 153.858 304.179 153.876 304.46C153.806 304.758 153.762 305.065 153.762 305.39V311.567V311.909V318.086C153.762 320.324 155.596 322.166 157.842 322.166H160.439C162.676 322.166 164.519 320.332 164.519 318.086V312.62H168.301C172.653 312.62 176.215 308.566 176.215 303.609V293.457C176.215 288.499 172.653 284.445 168.301 284.445Z" fill="white" stroke="black" stroke-width="1.0106" stroke-miterlimit="10"/>
<path d="M153.289 298.019C153.289 298.019 159.711 295.887 161.65 291.746C163.598 287.604 163.116 286.709 163.116 286.709C163.116 286.709 166.731 291.667 172.452 292.877C177.172 293.886 176.979 293.184 177.444 292.088C177.874 291.079 178.164 284.086 170.986 279.786C163.818 275.487 156.114 275.908 150.805 281.269C145.488 286.63 146.137 295.071 147.927 297.186C149.709 299.3 152.069 300.476 153.289 298.019Z" fill="black"/>
<path d="M157.035 273.208C157.848 269.765 155.716 266.315 152.273 265.502C148.831 264.69 145.381 266.821 144.568 270.264C143.755 273.707 145.887 277.157 149.329 277.97C152.772 278.783 156.222 276.651 157.035 273.208Z" fill="black"/>
<path d="M145.592 300.485C145.592 303.337 147.926 305.653 150.804 305.653C153.682 305.653 156.016 303.337 156.016 300.485C156.016 297.633 153.682 295.317 150.804 295.317C147.926 295.317 145.592 297.633 145.592 300.485Z" fill="white"/>
<path d="M153.62 301.169C153.62 301.169 153.848 297.66 150.242 298.046" stroke="#020202" stroke-width="1.0106" stroke-miterlimit="10"/>
<path d="M164.591 298.248C165.405 298.248 166.065 297.588 166.065 296.774C166.065 295.96 165.405 295.3 164.591 295.3C163.777 295.3 163.117 295.96 163.117 296.774C163.117 297.588 163.777 298.248 164.591 298.248Z" fill="black"/>
<path d="M172.783 296.554C172.783 297.247 173.344 297.818 174.046 297.818C174.739 297.818 175.31 297.256 175.31 296.554C175.31 295.861 174.748 295.291 174.046 295.291C173.344 295.299 172.783 295.861 172.783 296.554Z" fill="black"/>
<path d="M171.362 302.591C171.362 302.591 170.616 304.749 169.055 304.898C167.484 305.048 166.256 303.31 166.177 301.95" stroke="#0C0C0C" stroke-width="1.0106" stroke-miterlimit="10"/>
<path d="M157.975 302.196C157.975 304.223 159.616 305.863 161.643 305.863C163.67 305.863 165.311 304.223 165.311 302.196C165.311 300.169 163.67 298.528 161.643 298.528C159.616 298.528 157.975 300.169 157.975 302.196Z" fill="#E4B0C8"/>
<path d="M175.23 299.713C175.45 299.713 175.669 299.739 175.88 299.792V303.6C175.88 304.17 175.862 304.714 175.739 305.249C175.59 305.276 175.388 305.293 175.23 305.293C173.686 305.293 172.44 304.047 172.44 302.503C172.431 300.959 173.686 299.713 175.23 299.713Z" fill="#E4B0C8"/>
<path d="M169.7 295.299L169.402 300.318L171.797 298.862L169.7 295.299Z" fill="#DB7294"/>
<path d="M216.764 284.446H190.379C187.756 284.446 185.632 282.322 185.632 279.699C185.632 277.075 187.756 274.952 190.379 274.952H216.764C219.387 274.952 221.511 277.075 221.511 279.699C221.511 282.322 219.387 284.446 216.764 284.446Z" stroke="black" stroke-width="1.0106" stroke-miterlimit="10"/>
<path d="M218.736 337.276H123.201C118.673 337.276 114.997 333.608 114.997 329.072V277.724C114.997 273.197 118.665 269.52 123.201 269.52H218.727C223.255 269.52 226.931 273.188 226.931 277.724V329.072C226.931 333.599 223.263 337.276 218.736 337.276Z" stroke="black" stroke-width="1.0106" stroke-miterlimit="10"/>
<path d="M174.121 345.015C174.104 346.243 173.349 347.384 172.182 347.805C170.989 348.235 169.638 347.867 168.839 346.884C168.067 345.927 167.979 344.55 168.602 343.497C169.225 342.453 170.48 341.874 171.682 342.102C173.095 342.348 174.104 343.585 174.121 345.015C174.13 345.717 175.227 345.726 175.218 345.015C175.192 343.313 174.148 341.804 172.56 341.198C170.98 340.601 169.103 341.102 168.032 342.409C166.953 343.725 166.777 345.62 167.655 347.094C168.532 348.569 170.252 349.306 171.919 349.007C173.823 348.665 175.183 346.928 175.21 345.015C175.227 344.304 174.13 344.304 174.121 345.015Z" fill="black"/>
<path d="M161.429 187.866H61.2547C57.2266 187.866 53.9596 184.599 53.9596 180.571V116.103C53.9596 112.075 57.2266 108.808 61.2547 108.808H161.429C165.457 108.808 168.724 112.075 168.724 116.103V180.571C168.724 184.599 165.457 187.866 161.429 187.866Z" fill="#D0EEDE"/>
<path d="M114.054 180.553C114.036 181.602 113.395 182.586 112.393 182.948C111.362 183.319 110.193 183.003 109.506 182.149C108.847 181.333 108.773 180.145 109.311 179.244C109.85 178.353 110.917 177.852 111.947 178.038C113.163 178.26 114.036 179.319 114.054 180.553C114.063 181.296 115.224 181.305 115.214 180.553C115.196 178.994 114.24 177.62 112.783 177.072C111.353 176.525 109.636 176.989 108.662 178.177C107.678 179.384 107.511 181.11 108.309 182.456C109.116 183.801 110.676 184.47 112.207 184.201C113.943 183.885 115.177 182.298 115.205 180.562C115.224 179.801 114.063 179.801 114.054 180.553Z" fill="black"/>
<path d="M153.829 173.666H68.8484C64.8203 173.666 61.5532 170.399 61.5532 166.371V120.697C61.5532 116.669 64.8203 113.402 68.8484 113.402H153.829C157.857 113.402 161.124 116.669 161.124 120.697V166.371C161.133 170.399 157.866 173.666 153.829 173.666Z" fill="white"/>
<path d="M97.2046 157.674C78.5583 157.674 63.4389 176.692 63.4389 200.146H130.97C130.97 176.692 115.851 157.674 97.2046 157.674Z" fill="white" stroke="black" stroke-width="1.069" stroke-miterlimit="10"/>
<path d="M86.6541 167.903C86.6541 169.23 85.5775 170.316 84.2409 170.316C82.9044 170.316 81.8278 169.239 81.8278 167.903C81.8278 166.575 82.9044 165.49 84.2409 165.49C85.5775 165.49 86.6541 166.575 86.6541 167.903Z" fill="#FFBA7B"/>
<path d="M96.2278 179.588C97.7093 179.588 98.9102 178.387 98.9102 176.906C98.9102 175.424 97.7093 174.223 96.2278 174.223C94.7464 174.223 93.5455 175.424 93.5455 176.906C93.5455 178.387 94.7464 179.588 96.2278 179.588Z" fill="#FFBA7B"/>
<path d="M108.923 167.903C108.923 169.23 107.846 170.316 106.51 170.316C105.183 170.316 104.097 169.239 104.097 167.903C104.097 166.575 105.173 165.49 106.51 165.49C107.846 165.499 108.923 166.575 108.923 167.903Z" fill="#FFBA7B"/>
<path d="M118.249 176.21C119.398 176.21 120.328 175.279 120.328 174.131C120.328 172.982 119.398 172.052 118.249 172.052C117.101 172.052 116.17 172.982 116.17 174.131C116.17 175.279 117.101 176.21 118.249 176.21Z" fill="#FFBA7B"/>
<path d="M78.3388 178.317C78.3388 179.7 77.2157 180.832 75.8235 180.832C74.4406 180.832 73.3083 179.709 73.3083 178.317C73.3083 176.924 74.4313 175.801 75.8235 175.801C77.2157 175.811 78.3388 176.934 78.3388 178.317Z" fill="#FFBA7B"/>
<path d="M86.5891 188.266C88.0705 188.266 89.2714 187.065 89.2714 185.584C89.2714 184.102 88.0705 182.901 86.5891 182.901C85.1077 182.901 83.9068 184.102 83.9068 185.584C83.9068 187.065 85.1077 188.266 86.5891 188.266Z" fill="#FFBA7B"/>
<path d="M111.4 187.319C112.62 187.319 113.609 186.33 113.609 185.11C113.609 183.89 112.62 182.901 111.4 182.901C110.18 182.901 109.191 183.89 109.191 185.11C109.191 186.33 110.18 187.319 111.4 187.319Z" fill="#FFBA7B"/>
<path d="M124.617 189.463C124.617 190.651 123.661 191.607 122.473 191.607C121.285 191.607 120.329 190.651 120.329 189.463C120.329 188.275 121.285 187.319 122.473 187.319C123.651 187.319 124.617 188.285 124.617 189.463Z" fill="#FFBA7B"/>
<path d="M75.4617 190.54C75.4617 191.793 74.4408 192.814 73.1878 192.814C71.9348 192.814 70.9138 191.793 70.9138 190.54C70.9138 189.287 71.9348 188.266 73.1878 188.266C74.4408 188.257 75.4617 189.278 75.4617 190.54Z" fill="#FFBA7B"/>
<path d="M101.753 192.814C101.753 194.067 100.732 195.088 99.4789 195.088C98.2259 195.088 97.205 194.067 97.205 192.814C97.205 191.561 98.2259 190.54 99.4789 190.54C100.732 190.54 101.753 191.561 101.753 192.814Z" fill="#FFBA7B"/>
<path d="M133.585 178.103L134.254 175.838C134.254 175.838 134.319 175.235 133.455 174.901C132.583 174.567 119.301 169.453 119.301 169.453C119.301 169.453 118.169 168.785 117.853 169.601C117.538 170.418 115.338 174.029 115.338 174.029C115.338 174.029 114.707 174.947 115.477 175.365C116.248 175.792 128.286 180.321 128.286 180.321L131.358 181.593C131.358 181.593 132.332 181.946 132.49 181.472C132.639 181.017 133.585 178.103 133.585 178.103Z" fill="#049478"/>
<path d="M137.289 162.195C137.289 162.195 138.487 156.014 137.503 154.853C136.519 153.693 135.581 154.937 135.099 156.496C134.607 158.055 133.837 161.016 133.837 161.016L130.737 154.788C130.737 154.788 137.623 149.767 137.883 148.848C138.143 147.929 138.199 147.317 137.725 147.308C137.252 147.298 135.776 147.697 135.776 147.697C135.776 147.697 138.106 145.451 137.382 144.653C136.658 143.855 134.143 145.683 134.143 145.683C134.143 145.683 135.043 142.277 134.635 141.618C134.217 140.959 131.396 144.839 130.625 146.287C129.846 147.735 128.453 150.129 128.453 150.129C128.453 150.129 127.525 150.853 127.562 151.243C127.599 151.633 126.43 152.496 126.244 152.654C126.068 152.811 124.657 155.754 123.33 158.742C122.003 161.74 120.035 165.805 120.035 165.805L119.07 167.652C119.07 167.652 118.04 169.156 120.184 169.769C122.328 170.381 130.783 173.852 130.783 173.852L133.465 174.883C133.465 174.883 134.273 176.015 134.922 173.416C135.572 170.836 137.289 162.195 137.289 162.195Z" fill="white"/>
<path d="M132 182.883C136.659 169.88 138.608 156.264 137.504 154.862C135.972 152.904 135.017 156.245 133.838 161.025L130.738 154.797C130.738 154.797 138.172 149.739 138.172 147.725C138.172 145.711 126.515 151.41 125.494 153.526C124.835 154.89 120.881 166.028 114.217 175.718" stroke="black" stroke-width="1.069" stroke-miterlimit="10"/>
<path d="M135.039 147.883C135.039 147.883 138.111 145.98 137.387 144.662C136.672 143.344 127.363 149.916 127.595 151.651" stroke="black" stroke-width="1.069" stroke-miterlimit="10"/>
<path d="M133.821 145.887C133.821 145.887 135.733 142.101 134.638 141.627C133.543 141.163 129.635 147.465 129.18 149.396" stroke="black" stroke-width="1.069" stroke-miterlimit="10"/>
<path d="M134.418 175.263L118.296 169.063" stroke="black" stroke-width="1.069" stroke-miterlimit="10"/>
<path d="M132.3 181.992L114.851 174.762" stroke="black" stroke-width="1.069" stroke-miterlimit="10"/>
<path d="M132.332 174.465L129.845 180.971" stroke="black" stroke-width="1.069" stroke-miterlimit="10"/>
<path d="M129.238 173.277L126.742 179.69" stroke="black" stroke-width="1.069" stroke-miterlimit="10"/>
<path d="M126.345 172.043L123.913 178.373" stroke="black" stroke-width="1.069" stroke-miterlimit="10"/>
<path d="M123.144 170.855L120.935 177.175" stroke="black" stroke-width="1.069" stroke-miterlimit="10"/>
<path d="M120.441 169.871L117.805 175.95" stroke="black" stroke-width="1.069" stroke-miterlimit="10"/>
<path d="M83.9172 138.657C83.9172 141.46 86.2097 143.724 89.0313 143.724C91.8528 143.724 94.1453 141.45 94.1453 138.657C94.1453 135.854 91.8528 133.589 89.0313 133.589C86.2097 133.589 83.9172 135.854 83.9172 138.657Z" stroke="black" stroke-width="2.138" stroke-miterlimit="10"/>
<path d="M104.522 159.02C104.522 161.368 101.255 163.28 97.2178 163.28C93.1804 163.28 89.9134 161.378 89.9134 159.02C89.9134 156.672 93.1804 154.76 97.2178 154.76C101.255 154.76 104.522 156.672 104.522 159.02Z" fill="#049478" stroke="#211F21" stroke-width="1.069" stroke-miterlimit="10"/>
<path d="M106.19 122.925H99.7676C95.4981 122.925 92.0083 126.907 92.0083 131.761V141.72C92.0083 141.998 92.0269 142.277 92.0455 142.555C91.9805 142.852 91.9341 143.149 91.9341 143.465V149.525V149.859V155.92C91.9341 158.12 93.7347 159.92 95.9344 159.92H98.4775C100.677 159.92 102.478 158.12 102.478 155.92V150.556H106.19C110.46 150.556 113.95 146.574 113.95 141.72V131.761C113.959 126.897 110.46 122.925 106.19 122.925Z" fill="white" stroke="black" stroke-width="1.069" stroke-miterlimit="10"/>
<path d="M101.112 135.009C101.112 135.808 101.762 136.457 102.56 136.457C103.358 136.457 104.008 135.808 104.008 135.009C104.008 134.211 103.358 133.562 102.56 133.562C101.762 133.571 101.112 134.211 101.112 135.009Z" fill="#141414"/>
<path d="M110.588 134.805C110.588 135.492 111.145 136.04 111.822 136.04C112.509 136.04 113.057 135.483 113.057 134.805C113.057 134.118 112.5 133.571 111.822 133.571C111.145 133.571 110.588 134.118 110.588 134.805Z" fill="#141414"/>
<path d="M109.2 140.727C109.2 140.727 108.476 142.843 106.935 142.992C105.394 143.14 104.188 141.432 104.104 140.105L109.2 140.727Z" fill="#F7F6F6"/>
<path d="M108.697 140.588C108.679 140.643 108.66 140.69 108.632 140.745C108.697 140.588 108.623 140.773 108.595 140.829C108.558 140.912 108.511 140.996 108.474 141.08C108.252 141.488 108.066 141.776 107.741 142.073C107.426 142.36 107.017 142.546 106.535 142.472C106.061 142.398 105.616 142.073 105.3 141.683C105.114 141.46 104.957 141.191 104.845 140.94C104.725 140.671 104.65 140.346 104.632 140.105C104.455 140.281 104.288 140.448 104.112 140.625C105.597 140.81 107.082 140.987 108.567 141.172C108.781 141.2 108.985 141.228 109.198 141.247C109.477 141.284 109.718 140.987 109.718 140.727C109.718 140.421 109.477 140.244 109.198 140.207C107.713 140.021 106.228 139.845 104.743 139.66C104.53 139.632 104.326 139.604 104.112 139.585C103.843 139.557 103.574 139.845 103.592 140.105C103.694 141.506 104.632 142.973 106.024 143.409C107.379 143.836 108.558 142.973 109.235 141.859C109.421 141.544 109.588 141.209 109.709 140.866C109.802 140.606 109.607 140.3 109.347 140.226C109.05 140.142 108.79 140.318 108.697 140.588Z" fill="#141414"/>
<path d="M99.6769 143.938C101.666 143.938 103.278 142.326 103.278 140.337C103.278 138.348 101.666 136.736 99.6769 136.736C97.6881 136.736 96.0758 138.348 96.0758 140.337C96.0758 142.326 97.6881 143.938 99.6769 143.938Z" fill="#E4B0C8"/>
<path d="M112.99 137.896C113.213 137.896 113.417 137.924 113.622 137.97V141.701C113.622 142.258 113.603 142.797 113.492 143.326C113.343 143.353 113.148 143.372 112.99 143.372C111.478 143.372 110.252 142.147 110.252 140.634C110.252 139.121 111.478 137.896 112.99 137.896Z" fill="#E4B0C8"/>
<path d="M107.578 133.571L107.281 138.499L109.639 137.061L107.578 133.571Z" fill="#D96980"/>
<path d="M93.7635 136.736L94.8773 130.693C94.8773 130.693 101.133 132.689 105.913 128.865C110.693 125.032 102.85 123.491 104.112 126.35C105.375 129.199 109.765 130.378 115.185 129.775C123.26 128.884 123.464 119.129 118.823 116.27C114.183 113.402 108.939 116.771 108.939 116.771C108.939 116.771 111.352 111.936 105.31 110.321C100.344 108.994 96.6222 113.198 96.0746 115.054C96.0746 115.054 87.8884 115.862 84.2501 121.004C80.6118 126.146 80.3241 132.29 83.916 137.896C87.5079 143.502 91.7959 146.518 91.7959 146.518C91.7959 146.518 92.5013 139.27 93.7635 136.736Z" fill="black"/>
<path d="M83.9209 138.657C83.9209 141.46 86.2134 143.725 89.0349 143.725C91.8565 143.725 94.149 141.451 94.149 138.657C94.149 135.854 91.8565 133.589 89.0349 133.589C86.2134 133.589 83.9209 135.854 83.9209 138.657Z" fill="white"/>
<path d="M92.4365 139.325C92.4644 138.88 92.3901 138.407 92.2695 137.98C92.0189 137.107 91.462 136.318 90.6267 135.938C89.9584 135.631 89.2159 135.548 88.4827 135.631C88.1486 135.669 87.8237 135.901 87.8423 136.272C87.8608 136.587 88.1207 136.949 88.4827 136.912C88.789 136.884 89.0953 136.875 89.4015 136.903C89.4294 136.903 89.4665 136.912 89.4943 136.912C89.2994 136.903 89.4201 136.903 89.4665 136.912C89.5222 136.922 89.5779 136.931 89.6429 136.949C89.7635 136.977 89.8749 137.014 89.9863 137.052C90.144 137.107 89.8563 136.987 90.0048 137.061C90.0512 137.079 90.0976 137.107 90.1348 137.126C90.2276 137.172 90.3111 137.256 90.4039 137.293C90.274 137.237 90.3018 137.209 90.3482 137.256C90.3668 137.274 90.3854 137.284 90.4039 137.302C90.4411 137.33 90.4689 137.358 90.506 137.395C90.571 137.46 90.6267 137.543 90.7009 137.608C90.5524 137.46 90.6545 137.543 90.6916 137.599C90.7195 137.636 90.7381 137.664 90.7566 137.701C90.803 137.775 90.8494 137.859 90.8866 137.933C90.9051 137.97 90.9237 138.017 90.9422 138.054C90.9794 138.119 90.8773 137.887 90.9144 137.98C90.9237 137.998 90.933 138.017 90.933 138.035C90.9608 138.119 90.9887 138.202 91.0165 138.286C91.0629 138.425 91.0907 138.574 91.1186 138.713C91.1279 138.741 91.1279 138.778 91.1372 138.806C91.1557 138.936 91.1186 138.62 91.1279 138.741C91.1372 138.806 91.1372 138.861 91.1464 138.926C91.1557 139.056 91.165 139.196 91.1557 139.325C91.1372 139.66 91.462 139.975 91.7961 139.966C92.1674 139.947 92.418 139.687 92.4365 139.325Z" fill="#090909"/>
<path d="M153.829 173.666H68.8484C64.8203 173.666 61.5532 170.399 61.5532 166.371V120.697C61.5532 116.669 64.8203 113.402 68.8484 113.402H153.829C157.857 113.402 161.124 116.669 161.124 120.697V166.371C161.133 170.399 157.866 173.666 153.829 173.666Z" stroke="black" stroke-width="1.069" stroke-miterlimit="10"/>
<path d="M404.128 322.512H300.363C296.191 322.512 292.809 319.13 292.809 314.958V248.172C292.809 244 296.191 240.618 300.363 240.618H404.128C408.3 240.618 411.682 244 411.682 248.172V314.958C411.682 319.13 408.3 322.512 404.128 322.512Z" fill="#D0EEDE"/>
<path d="M355.053 314.939C355.034 316.025 354.367 317.044 353.329 317.425C352.262 317.806 351.052 317.482 350.338 316.596C349.652 315.748 349.576 314.52 350.138 313.586C350.69 312.662 351.805 312.138 352.872 312.338C354.129 312.557 355.034 313.662 355.053 314.939C355.063 315.701 356.253 315.71 356.244 314.939C356.225 313.329 355.234 311.91 353.729 311.338C352.243 310.776 350.471 311.252 349.471 312.481C348.452 313.729 348.28 315.51 349.109 316.901C349.938 318.292 351.557 318.987 353.148 318.701C354.948 318.378 356.225 316.73 356.253 314.939C356.253 314.167 355.063 314.167 355.053 314.939Z" fill="black"/>
<path d="M396.253 307.804H308.224C304.052 307.804 300.67 304.422 300.67 300.25V252.935C300.67 248.763 304.052 245.381 308.224 245.381H396.253C400.425 245.381 403.807 248.763 403.807 252.935V300.25C403.807 304.422 400.425 307.804 396.253 307.804Z" fill="white"/>
<path d="M290.416 306.318C290.416 306.318 305.991 291.448 322.566 288.371C339.141 285.304 372.338 285.609 390.304 309.357C408.27 333.114 364.117 354.128 362.898 354.281C361.679 354.433 289.959 342.431 287.215 340.363C284.472 338.296 274.127 325.96 290.416 306.318Z" fill="#049478" stroke="black" stroke-width="0.997312" stroke-miterlimit="10"/>
<path d="M358.05 294.077C358.05 294.077 384.903 348.032 378.892 358.339C372.882 368.646 328.386 378.476 306.182 367.217C280.214 354.052 314.374 299.374 322.442 286.771L358.05 294.077Z" fill="#049478" stroke="black" stroke-width="0.997312" stroke-miterlimit="10"/>
<path d="M316.42 306.318C316.42 309.709 319.173 312.462 322.564 312.462C325.955 312.462 328.708 309.709 328.708 306.318C328.708 302.927 325.955 300.174 322.564 300.174C319.173 300.174 316.42 302.927 316.42 306.318Z" fill="white"/>
<path d="M396.249 307.804H308.22C304.048 307.804 300.666 304.422 300.666 300.25V252.935C300.666 248.763 304.048 245.381 308.22 245.381H396.249C400.421 245.381 403.803 248.763 403.803 252.935V300.25C403.803 304.422 400.421 307.804 396.249 307.804Z" stroke="black" stroke-width="1.09715" stroke-miterlimit="10"/>
<path d="M361.845 291.032C362.634 283.328 353.618 276.093 341.707 274.872C329.795 273.65 319.498 278.906 318.708 286.609C317.918 294.313 326.934 301.549 338.846 302.77C350.758 303.991 361.055 298.736 361.845 291.032Z" fill="#049478" stroke="black" stroke-width="1.06599" stroke-miterlimit="10"/>
<path d="M328.823 267.471C328.823 270.577 331.367 273.101 334.501 273.101C337.635 273.101 340.178 270.577 340.178 267.471C340.178 264.366 337.635 261.842 334.501 261.842C331.367 261.842 328.823 264.366 328.823 267.471Z" stroke="black" stroke-width="2.06276" stroke-miterlimit="10"/>
<path d="M353.554 250.001H346.419C341.675 250.001 337.798 254.421 337.798 259.812V270.862C337.798 271.177 337.817 271.482 337.836 271.786C337.76 272.11 337.713 272.453 337.713 272.796V279.521V279.893V286.618C337.713 289.057 339.713 291.057 342.152 291.057H344.981C347.419 291.057 349.42 289.057 349.42 286.618V280.665H353.545C358.288 280.665 362.165 276.245 362.165 270.853V259.803C362.175 254.421 358.298 250.001 353.554 250.001Z" fill="white" stroke="black" stroke-width="1.03132" stroke-miterlimit="10"/>
<path d="M347.9 263.423C347.9 264.309 348.624 265.033 349.51 265.033C350.396 265.033 351.12 264.309 351.12 263.423C351.12 262.537 350.396 261.813 349.51 261.813C348.624 261.822 347.9 262.537 347.9 263.423Z" fill="#0C0C0C"/>
<path d="M358.431 263.194C358.431 263.956 359.04 264.566 359.802 264.566C360.564 264.566 361.174 263.947 361.174 263.194C361.174 262.432 360.564 261.822 359.802 261.822C359.04 261.822 358.431 262.432 358.431 263.194Z" fill="#0C0C0C"/>
<path d="M356.894 269.767C356.894 269.767 356.084 272.12 354.379 272.282C352.674 272.444 351.331 270.548 351.245 269.072L356.894 269.767Z" fill="#FFF7F7"/>
<path d="M356.412 269.634C356.393 269.691 356.365 269.748 356.346 269.805C356.403 269.653 356.317 269.872 356.298 269.92C356.25 270.015 356.212 270.101 356.165 270.196C355.936 270.624 355.688 270.986 355.336 271.31C354.964 271.653 354.469 271.853 353.945 271.777C353.374 271.691 352.878 271.32 352.516 270.882C352.097 270.386 351.792 269.729 351.745 269.072C351.583 269.234 351.411 269.405 351.249 269.567C352.897 269.767 354.555 269.967 356.203 270.177C356.441 270.205 356.669 270.234 356.908 270.262C357.174 270.291 357.403 270.005 357.403 269.767C357.403 269.472 357.174 269.3 356.908 269.272C355.26 269.072 353.602 268.872 351.954 268.662C351.716 268.634 351.487 268.605 351.249 268.576C350.992 268.548 350.735 268.834 350.754 269.072C350.868 270.596 351.887 272.196 353.393 272.672C354.869 273.13 356.136 272.196 356.87 270.986C357.079 270.643 357.26 270.282 357.384 269.9C357.593 269.291 356.622 269.034 356.412 269.634Z" fill="#0C0C0C"/>
<path d="M342.325 269.338C342.325 271.548 344.116 273.33 346.316 273.33C348.517 273.33 350.308 271.539 350.308 269.338C350.308 267.128 348.517 265.347 346.316 265.347C344.116 265.347 342.325 267.128 342.325 269.338Z" fill="#E4B0C8"/>
<path d="M361.107 266.633C361.355 266.633 361.584 266.662 361.812 266.719V270.863C361.812 271.482 361.793 272.082 361.66 272.663C361.488 272.691 361.279 272.711 361.107 272.711C359.431 272.711 358.069 271.348 358.069 269.672C358.059 267.995 359.421 266.633 361.107 266.633Z" fill="#E4B0C8"/>
<path d="M355.086 261.822L354.762 267.29L357.372 265.699L355.086 261.822Z" fill="#DB7294"/>
<path d="M339.675 267.29L340.989 258.631C340.989 258.631 364.947 261.632 372.71 250.001C380.474 238.36 372.32 233.759 368.366 234.417C364.413 235.074 359.803 240.732 359.803 240.732C359.803 240.732 363.48 235.731 359.803 234.941C356.126 234.15 352.068 237.97 349.953 241.914C349.953 241.914 334.159 240.437 328.825 249.991C323.49 259.546 327.815 266.328 337.579 276.197L338.227 270.672L339.675 267.29Z" fill="black"/>
<path d="M328.83 267.471C328.83 270.577 331.374 273.101 334.508 273.101C337.642 273.101 340.185 270.577 340.185 267.471C340.185 264.366 337.642 261.842 334.508 261.842C331.374 261.842 328.83 264.366 328.83 267.471Z" fill="white"/>
<path d="M338.199 268.214C338.227 267.729 338.151 267.214 338.018 266.747C337.751 265.804 337.151 264.947 336.237 264.528C335.503 264.194 334.693 264.118 333.903 264.194C333.579 264.223 333.274 264.452 333.284 264.814C333.293 265.118 333.56 265.461 333.903 265.433C334.246 265.395 334.579 265.385 334.922 265.423C334.941 265.423 335.017 265.423 335.027 265.433C335.008 265.404 334.893 265.414 335.027 265.433C335.093 265.442 335.16 265.461 335.217 265.471C335.351 265.499 335.474 265.547 335.608 265.585C335.77 265.642 335.503 265.528 335.655 265.604C335.703 265.633 335.751 265.652 335.808 265.68C335.846 265.699 336.084 265.88 336.103 265.871C336.084 265.88 335.979 265.766 336.065 265.842C336.084 265.861 336.103 265.871 336.122 265.89C336.16 265.919 336.198 265.957 336.237 265.995C336.303 266.061 336.37 266.176 336.446 266.233C336.351 266.166 336.37 266.128 336.418 266.195C336.427 266.214 336.437 266.223 336.446 266.242C336.475 266.281 336.494 266.319 336.522 266.357C336.579 266.443 336.627 266.528 336.665 266.624C336.684 266.671 336.703 266.709 336.732 266.757C336.77 266.824 336.665 266.595 336.703 266.69C336.713 266.709 336.722 266.728 336.732 266.747C336.77 266.843 336.799 266.928 336.827 267.024C336.875 267.176 336.913 267.338 336.941 267.5C336.951 267.538 336.951 267.567 336.961 267.605C336.98 267.738 336.941 267.424 336.951 267.557C336.96 267.624 336.97 267.69 336.97 267.757C336.98 267.909 336.989 268.052 336.98 268.205C336.96 268.529 337.275 268.834 337.599 268.824C337.932 268.814 338.18 268.567 338.199 268.214Z" fill="#020202"/>
<path d="M349.95 241.914C349.95 241.914 334.165 258.222 327.621 263.185C327.621 263.185 319.115 244.352 323.944 239.094C327.812 234.883 346.711 237.36 349.95 241.914Z" fill="#FFBA7B" stroke="black" stroke-width="1.03132" stroke-miterlimit="10"/>
<path d="M344.731 238.846L325.489 257.822" stroke="black" stroke-width="1.03132" stroke-miterlimit="10"/>
<path d="M354.339 282.464L356.911 292.018L337.431 298.191L336.421 294.2L329.22 289.923L332.201 281.864L340.727 288.494L341.289 288.96C341.289 288.96 341.603 289.484 343.175 288.618C344.756 287.732 354.339 282.464 354.339 282.464Z" fill="#049478"/>
<path d="M355.092 282.046L336.507 292.276L336.393 294.706" stroke="black" stroke-width="1.03132" stroke-miterlimit="10"/>
<path d="M331.744 281.836L341.87 289.324" stroke="black" stroke-width="1.03132" stroke-miterlimit="10"/>
<path d="M331.746 292.963C331.746 292.963 318.6 301.679 309.627 298.183" stroke="black" stroke-width="1.03132" stroke-miterlimit="10"/>
<path d="M331.423 294.353C332.233 294.353 332.89 293.696 332.89 292.886C332.89 292.076 332.233 291.419 331.423 291.419C330.612 291.419 329.956 292.076 329.956 292.886C329.956 293.696 330.612 294.353 331.423 294.353Z" stroke="black" stroke-width="1.03132" stroke-miterlimit="10"/>
<path d="M348.216 296.211C348.216 297.049 348.893 297.726 349.731 297.726C350.569 297.726 351.246 297.049 351.246 296.211C351.246 295.373 350.569 294.696 349.731 294.696C348.893 294.706 348.216 295.382 348.216 296.211Z" stroke="black" stroke-width="1.03132" stroke-miterlimit="10"/>
<path d="M349.729 296.211C349.729 296.211 355.092 311.691 364.456 316.187" stroke="black" stroke-width="1.03132" stroke-miterlimit="10"/>
<path d="M442.951 129.207H288.797C283.485 129.207 279.184 124.905 279.184 119.594V9.61297C279.184 4.30147 283.485 0 288.797 0H442.951C448.262 0 452.563 4.30147 452.563 9.61297V119.594C452.563 124.905 448.262 129.207 442.951 129.207Z" fill="#C7E4E0"/>
<path d="M367.938 145.431H352.829C350.124 145.431 348.302 142.662 349.383 140.176L357.526 121.374L364.491 105.284C365.797 102.261 370.085 102.261 371.391 105.284L378.356 121.374L386.5 140.176C387.573 142.655 385.758 145.431 383.053 145.431H367.938Z" fill="#C7E4E0"/>
<path d="M372.546 114.713C372.546 117.164 370.561 119.149 368.11 119.149C365.659 119.149 363.674 117.164 363.674 114.713C363.674 112.262 365.659 110.277 368.11 110.277C370.561 110.277 372.546 112.262 372.546 114.713Z" stroke="black" stroke-width="0.813511" stroke-miterlimit="10"/>
<path d="M440.633 104.945H293.952C291.515 104.945 289.545 102.967 289.545 100.537V14.3384C289.545 11.9016 291.522 9.93097 293.952 9.93097H440.633C443.07 9.93097 445.04 11.9087 445.04 14.3384V100.537C445.04 102.974 443.07 104.945 440.633 104.945Z" fill="white" stroke="black" stroke-width="0.813511" stroke-miterlimit="10"/>
<path d="M309.155 93.5796H396.378C401.626 93.5796 405.878 89.3276 405.878 84.0796V22.9055C405.878 17.6576 401.626 13.4056 396.378 13.4056H309.155C303.907 13.4056 299.655 17.6576 299.655 22.9055V84.0867C299.655 89.3276 303.907 93.5796 309.155 93.5796Z" fill="white" stroke="black" stroke-width="0.813511" stroke-miterlimit="10"/>
<path d="M310.019 20.7444C310.019 21.7473 309.214 22.5596 308.225 22.5596C307.236 22.5596 306.431 21.7473 306.431 20.7444C306.431 19.7414 307.236 18.9291 308.225 18.9291C309.214 18.9291 310.019 19.7414 310.019 20.7444Z" fill="#EC6060" stroke="black" stroke-width="0.813511" stroke-miterlimit="10"/>
<path d="M317.168 20.7444C317.168 21.7473 316.363 22.5596 315.374 22.5596C314.386 22.5596 313.58 21.7473 313.58 20.7444C313.58 19.7414 314.386 18.9291 315.374 18.9291C316.37 18.9291 317.168 19.7414 317.168 20.7444Z" fill="#C7E4E0" stroke="black" stroke-width="0.813511" stroke-miterlimit="10"/>
<path d="M324.325 20.7444C324.325 21.7473 323.52 22.5596 322.531 22.5596C321.542 22.5596 320.737 21.7473 320.737 20.7444C320.737 19.7414 321.542 18.9291 322.531 18.9291C323.52 18.9291 324.325 19.7414 324.325 20.7444Z" fill="#049478" stroke="black" stroke-width="0.813511" stroke-miterlimit="10"/>
<path d="M299.889 27.1085H405.865" stroke="black" stroke-width="0.813511" stroke-miterlimit="10"/>
<path d="M399.842 60.7079H380.058V73.0402H399.842V60.7079Z" stroke="#88E5D4" stroke-width="0.813511" stroke-miterlimit="10"/>
<path d="M382.48 63.95H396.846" stroke="#88E5D4" stroke-width="0.813511" stroke-miterlimit="10"/>
<path d="M382.48 66.1962H396.846" stroke="#88E5D4" stroke-width="0.813511" stroke-miterlimit="10"/>
<path d="M382.48 68.4425H396.846" stroke="#88E5D4" stroke-width="0.813511" stroke-miterlimit="10"/>
<path d="M356.617 48.0363V33.5639C348.621 33.5639 342.144 40.0408 342.144 48.0363C342.144 56.0318 348.621 62.5088 356.617 62.5088C364.612 62.5088 371.089 56.0318 371.089 48.0363C371.089 46.991 370.969 45.9668 370.757 44.985L356.617 48.0363Z" fill="#EC6060"/>
<path d="M372.537 42.4493C371.139 35.923 365.34 31.0282 358.397 31.0282V45.5006L372.537 42.4493Z" fill="#FFA370"/>
<path d="M329.407 34.4185H312.059C311.388 34.4185 310.837 33.8746 310.837 33.1965C310.837 32.5255 311.381 31.9746 312.059 31.9746H329.407C330.078 31.9746 330.628 32.5185 330.628 33.1965C330.621 33.8746 330.078 34.4185 329.407 34.4185Z" stroke="#88E5D4" stroke-width="0.813511" stroke-miterlimit="10"/>
<path d="M312.083 36.2336H328.872" stroke="#88E5D4" stroke-width="0.813511" stroke-miterlimit="10"/>
<path d="M312.083 38.4792H328.872" stroke="#88E5D4" stroke-width="0.813511" stroke-miterlimit="10"/>
<path d="M312.083 40.7185H328.872" stroke="#88E5D4" stroke-width="0.813511" stroke-miterlimit="10"/>
<path d="M331.871 33.5851H338.207L347.34 41.9479" stroke="#88E5D4" stroke-width="0.813511" stroke-miterlimit="10"/>
<path d="M398.611 35.8318H381.264C380.593 35.8318 380.042 35.2879 380.042 34.6099C380.042 33.9389 380.586 33.3879 381.264 33.3879H398.611C399.282 33.3879 399.833 33.9318 399.833 34.6099C399.833 35.2879 399.289 35.8318 398.611 35.8318Z" stroke="#88E5D4" stroke-width="0.813511" stroke-miterlimit="10"/>
<path d="M381.307 37.6465H398.096" stroke="#88E5D4" stroke-width="0.813511" stroke-miterlimit="10"/>
<path d="M381.307 39.8927H398.096" stroke="#88E5D4" stroke-width="0.813511" stroke-miterlimit="10"/>
<path d="M381.307 42.1318H398.096" stroke="#88E5D4" stroke-width="0.813511" stroke-miterlimit="10"/>
<path d="M381.307 44.4628H398.096" stroke="#88E5D4" stroke-width="0.813511" stroke-miterlimit="10"/>
<path d="M381.307 46.7087H398.096" stroke="#88E5D4" stroke-width="0.813511" stroke-miterlimit="10"/>
<path d="M381.307 48.9548H398.096" stroke="#88E5D4" stroke-width="0.813511" stroke-miterlimit="10"/>
<path d="M367.188 40.2952L373.312 35.2733H378.75" stroke="#88E5D4" stroke-width="0.813511" stroke-miterlimit="10"/>
<path d="M313.349 53.7928V82.2292H356.385" stroke="#88E5D4" stroke-width="0.813511" stroke-miterlimit="10"/>
<path d="M313.35 53.948H311.811L312.58 52.6202L313.35 51.2923L314.113 52.6202L314.883 53.948H313.35Z" fill="#88E5D4"/>
<path d="M355.927 82.2288V80.696L357.262 81.4589L358.59 82.2288L357.262 82.9986L355.927 83.7685V82.2288Z" fill="#88E5D4"/>
<path d="M309.786 79.8774L320.253 70.4481L328.863 79.7079L339.727 59.818L347.666 79.2276" stroke="#C7E4E0" stroke-width="0.813511" stroke-miterlimit="10"/>
<path d="M306.208 65.8496C306.208 65.8496 306.589 65.4541 307.225 64.8749" stroke="#EC6060" stroke-width="0.813511" stroke-miterlimit="10"/>
<path d="M309.328 63.1374C312.111 61.0467 316.13 58.8925 318.687 61.3575C322.917 65.433 321.915 68.569 330.412 66.7397C338.4 65.0233 348.204 67.3965 351.085 81.0285" stroke="#EC6060" stroke-width="0.813511" stroke-miterlimit="10" stroke-dasharray="3.14 3.14"/>
<path d="M351.332 82.3707C351.41 82.8228 351.48 83.2889 351.544 83.7692" stroke="#EC6060" stroke-width="0.813511" stroke-miterlimit="10"/>
<path d="M440.081 49.8102C440.081 49.8102 466.208 60.0236 480.052 104.197L462.359 112.976L449.264 79.5391L440.081 49.8102Z" fill="#049478" stroke="black" stroke-width="0.813511" stroke-miterlimit="10"/>
<path d="M362.19 58.5545C362.19 58.5545 357.74 55.6939 358.291 54.3307C358.842 52.9675 360.135 53.7304 360.135 53.7304C360.135 53.7304 358.807 52.9181 359.421 52.014C360.036 51.117 360.869 51.449 360.869 51.449C360.869 51.449 359.93 50.0716 360.834 49.556C361.738 49.0475 363.101 49.3724 363.101 49.3724C363.101 49.3724 362.579 48.2281 362.607 47.8185C362.635 47.4159 363.221 46.5189 365.114 46.9638C367.014 47.4018 371.068 49.662 372.439 50.3612C373.809 51.0605 375.349 52.6709 375.398 52.1482C375.441 51.6255 376.027 48.2917 377.326 47.317C378.619 46.3423 379.135 46.1869 379.368 48.0374C379.601 49.888 379.537 55.0441 382.045 58.8441C384.552 62.6441 385.407 65.1727 388.055 68.2522C390.704 71.3318 391.919 72.8857 391.919 72.8857L379.982 82.6046C379.982 82.6046 368.399 65.1727 368.314 65.0526C368.229 64.9396 364.471 60.3274 362.19 58.5545Z" fill="white"/>
<path d="M359.741 53.6389C359.741 53.6389 358.258 51.2233 361.034 51.5199C363.81 51.8166 367.574 54.3805 369.383 55.7437" stroke="black" stroke-width="0.813511" stroke-miterlimit="10"/>
<path d="M372.408 61.2105C372.408 61.2105 371.391 58.1098 375.82 56.8243C375.82 56.8243 374.131 50.2414 377.324 47.3173C380.517 44.3931 378.779 51.9225 380.912 56.5064C383.045 61.0904 385.468 65.512 387.742 67.9276C390.016 70.3432 391.98 72.9707 391.98 72.9707L379.909 82.6614C379.909 82.6614 375.784 76.3893 369.42 66.6633C363.056 56.9373 357.441 56.7183 358.296 54.331C359.348 51.3927 366.849 58.3146 366.849 58.3146" stroke="black" stroke-width="0.813511" stroke-miterlimit="10"/>
<path d="M361.032 51.5197C361.032 51.5197 359.605 49.761 361.42 49.3019C361.724 49.2242 362.098 49.2171 362.529 49.2736C364.712 49.5562 368.342 51.3926 370.991 53.4409" stroke="black" stroke-width="0.813511" stroke-miterlimit="10"/>
<path d="M375.422 52.6497C375.422 52.6497 370.223 47.7973 364.297 46.9992C362.15 46.7096 362.242 48.8497 364.347 49.7397" stroke="black" stroke-width="0.813511" stroke-miterlimit="10"/>
<path d="M400.614 78.9882C398.933 77.8581 397.217 76.3819 395.571 74.7856C390.232 69.5942 385.669 63.1243 385.669 63.1243L372.545 74.3689C372.545 74.3689 386.862 96.5896 395.458 99.3654C404.054 102.141 423.711 79.7934 423.711 79.7934L425.258 50.3894C425.258 50.3894 421.564 52.3742 418.597 55.0511C413.731 59.4444 405.22 67.3057 395.578 74.7856" fill="#049478"/>
<path d="M400.614 78.9882C398.933 77.8581 397.217 76.3819 395.571 74.7856C390.232 69.5942 385.669 63.1243 385.669 63.1243L372.545 74.3689C372.545 74.3689 386.862 96.5896 395.458 99.3654C404.054 102.141 423.711 79.7934 423.711 79.7934L425.258 50.3894C425.258 50.3894 421.564 52.3742 418.597 55.0511C413.731 59.4444 405.22 67.3057 395.578 74.7856" stroke="black" stroke-width="0.813511" stroke-miterlimit="10"/>
<path d="M389.949 68.6477C387.385 65.5681 385.669 63.1313 385.669 63.1313L372.546 74.3759C372.546 74.3759 374.212 76.961 376.741 80.4714L389.949 68.6477Z" fill="white" stroke="black" stroke-width="0.813511" stroke-miterlimit="10"/>
<path d="M386.731 67.3903C386.731 67.8847 386.328 68.2803 385.841 68.2803C385.347 68.2803 384.951 67.8777 384.951 67.3903C384.951 66.903 385.354 66.5004 385.841 66.5004C386.328 66.5004 386.731 66.8959 386.731 67.3903Z" fill="white" stroke="black" stroke-width="0.813511" stroke-miterlimit="10"/>
<path d="M460.897 106.174C460.897 105.927 460.897 100.919 460.897 100.679C460.897 71.7202 448.578 48.2422 433.379 48.2422C418.179 48.2422 405.86 71.7202 405.86 100.679C405.86 100.926 405.86 105.934 405.86 106.174H460.897Z" fill="#049478"/>
<path d="M433.294 61.3867V106.174" stroke="black" stroke-width="0.813511" stroke-miterlimit="10"/>
<path d="M433.376 61.8528L443.985 52.2822C440.722 49.6829 437.134 48.235 433.376 48.235C429.739 48.235 425.939 49.8383 422.76 52.2751L433.376 61.8528Z" fill="white" stroke="black" stroke-width="0.813511" stroke-miterlimit="10"/>
<path d="M409.816 73.5848C407.309 81.4885 405.861 90.7624 405.861 100.679C405.861 100.926 405.861 105.934 405.861 106.174H460.897C460.897 105.927 460.897 100.919 460.897 100.679C460.897 90.5364 459.386 81.0647 456.765 73.041" stroke="black" stroke-width="0.813511" stroke-miterlimit="10"/>
<path d="M443.994 52.2822C440.731 49.6759 437.143 48.2421 433.385 48.2421C429.635 48.2421 426.068 49.6688 422.805 52.2539" stroke="black" stroke-width="0.813511" stroke-miterlimit="10"/>
<path d="M440.633 104.945H293.952C291.515 104.945 289.545 102.967 289.545 100.537V14.3384C289.545 11.9016 291.522 9.93097 293.952 9.93097H440.633C443.07 9.93097 445.04 11.9087 445.04 14.3384V100.537C445.04 102.974 443.07 104.945 440.633 104.945Z" stroke="black" stroke-width="0.813511" stroke-miterlimit="10"/>
<path d="M444.31 55.1213L438.455 46.3277C437.311 44.6043 435.156 43.9686 433.299 44.6537C431.441 43.9615 429.287 44.6043 428.143 46.3277L422.287 55.1213C420.952 57.1273 421.496 59.8395 423.502 61.1815L424.343 61.7395C426.349 63.0745 429.061 62.5306 430.403 60.5247L433.306 56.1667L436.209 60.5247C437.544 62.5306 440.256 63.0745 442.269 61.7395L443.11 61.1815C445.101 59.8395 445.645 57.1273 444.31 55.1213Z" fill="#FEFEFF" stroke="black" stroke-width="0.813511" stroke-miterlimit="10"/>
<path d="M434.233 54.0829C434.233 54.5491 433.851 54.9305 433.385 54.9305C432.919 54.9305 432.538 54.5491 432.538 54.0829C432.538 53.6168 432.919 53.2354 433.385 53.2354C433.851 53.2354 434.233 53.6168 434.233 54.0829Z" fill="#FEFEFF" stroke="black" stroke-width="0.813511" stroke-miterlimit="10"/>
<path d="M444.93 33.3028C444.93 35.8032 442.889 37.8303 440.367 37.8303C437.846 37.8303 435.804 35.8032 435.804 33.3028C435.804 30.8025 437.846 28.7753 440.367 28.7753C442.889 28.7753 444.93 30.8025 444.93 33.3028Z" stroke="black" stroke-width="1.62702" stroke-miterlimit="10"/>
<path d="M425.04 19.2541H430.775C434.59 19.2541 437.704 22.8069 437.704 27.1436V36.0291C437.704 36.2763 437.69 36.5235 437.669 36.7707C437.733 37.0321 437.768 37.3075 437.768 37.583V42.9934V43.2971V48.7075C437.768 50.6711 436.165 52.2744 434.201 52.2744H431.927C429.963 52.2744 428.36 50.6711 428.36 48.7075V43.9187H425.047C421.233 43.9187 418.118 40.3659 418.118 36.0291V27.1436C418.111 22.8069 421.226 19.2541 425.04 19.2541Z" fill="white" stroke="black" stroke-width="0.813511" stroke-miterlimit="10"/>
<path d="M436.198 33.1616L435.138 26.1973C435.138 26.1973 415.877 28.6129 409.633 19.2542C403.39 9.89551 409.951 6.19441 413.123 6.72414C416.294 7.25388 420.009 11.8026 420.009 11.8026C420.009 11.8026 417.057 7.78362 420.009 7.14794C422.962 6.51225 426.232 9.58473 427.927 12.7561C427.927 12.7561 440.619 11.5695 444.914 19.2542C449.208 26.9389 445.726 32.3846 437.879 40.3236L437.356 35.8809L436.198 33.1616Z" fill="black"/>
<path d="M458.293 10.8208C458.293 15.3271 454.641 18.9788 450.135 18.9788C445.629 18.9788 441.977 15.3271 441.977 10.8208C441.977 6.3145 445.629 2.66284 450.135 2.66284C454.641 2.6699 458.293 6.32156 458.293 10.8208Z" fill="black"/>
<path d="M434.465 34.5246C434.465 36.3399 432.988 37.8161 431.173 37.8161C429.358 37.8161 427.882 36.3399 427.882 34.5246C427.882 32.7094 429.358 31.2332 431.173 31.2332C432.996 31.2332 434.465 32.7094 434.465 34.5246Z" fill="#E4B0C8"/>
<path d="M418.99 31.8972C418.792 31.8972 418.594 31.9254 418.411 31.9678V35.3793C418.411 35.8878 418.354 36.3893 418.46 36.8696C418.594 36.8908 418.849 36.9049 418.99 36.9049C420.374 36.9049 421.497 35.7819 421.497 34.3975C421.497 33.0131 420.374 31.8972 418.99 31.8972Z" fill="#E4B0C8"/>
<path d="M428.525 29.9264C428.525 30.5762 428.002 31.0989 427.352 31.0989C426.702 31.0989 426.18 30.5762 426.18 29.9264C426.18 29.2766 426.702 28.7539 427.352 28.7539C428.002 28.761 428.525 29.2836 428.525 29.9264Z" fill="#141414"/>
<path d="M420.863 29.7571C420.863 30.3081 420.418 30.753 419.86 30.753C419.309 30.753 418.864 30.3081 418.864 29.7571C418.864 29.2062 419.309 28.7612 419.86 28.7612C420.418 28.7612 420.863 29.2062 420.863 29.7571Z" fill="#141414"/>
<path d="M421.976 34.5457C421.976 34.5457 422.562 36.2621 423.805 36.3751C425.048 36.4952 426.023 35.1178 426.094 34.0372L421.976 34.5457Z" fill="#F7F6F6"/>
<path d="M421.592 34.6517C421.818 35.3086 422.221 35.9514 422.779 36.3681C423.746 37.1027 425.011 36.7495 425.738 35.8525C426.162 35.3369 426.437 34.7082 426.487 34.0443C426.501 33.8465 426.296 33.6276 426.091 33.6488C424.891 33.7971 423.69 33.9454 422.482 34.0937C422.313 34.1149 422.143 34.1361 421.974 34.1573C421.762 34.1856 421.578 34.3198 421.578 34.5528C421.578 34.7436 421.762 34.9766 421.974 34.9484C423.174 34.8001 424.375 34.6517 425.583 34.5034C425.752 34.4822 425.922 34.461 426.091 34.4398C425.957 34.3056 425.83 34.1785 425.696 34.0443C425.639 34.8142 425.06 35.7465 424.255 35.9514C423.492 36.1491 422.941 35.5629 422.595 34.9484C422.517 34.8142 422.454 34.6729 422.39 34.5317C422.362 34.4681 422.419 34.6164 422.397 34.5387C422.39 34.5246 422.383 34.5034 422.376 34.4893C422.369 34.4752 422.362 34.454 422.355 34.4398C422.193 33.9666 421.43 34.1714 421.592 34.6517Z" fill="#141414"/>
<path d="M433.284 29.2416C433.284 31.7631 431.455 33.8114 429.194 33.8114C426.934 33.8114 425.105 31.7631 425.105 29.2416C425.105 26.72 426.934 24.6717 429.194 24.6717C431.455 24.6717 433.284 26.72 433.284 29.2416Z" stroke="#049478" stroke-width="0.813511" stroke-miterlimit="10"/>
<path d="M419.007 32.752C420.864 32.752 422.369 30.9242 422.369 28.6695C422.369 26.4148 420.864 24.587 419.007 24.587C417.151 24.587 415.645 26.4148 415.645 28.6695C415.645 30.9242 417.151 32.752 419.007 32.752Z" stroke="#049478" stroke-width="0.813511" stroke-miterlimit="10"/>
<path d="M423.685 28.7753V32.7448L421.608 31.4805L423.685 28.7753Z" fill="#D96980"/>
<path d="M422.269 29.8911C422.269 29.8911 423.914 29.1989 425.108 30.1878" stroke="#049478" stroke-width="0.813511" stroke-miterlimit="10"/>
<path d="M444.92 33.3026C444.92 35.803 442.879 37.8301 440.357 37.8301C437.836 37.8301 435.794 35.803 435.794 33.3026C435.794 30.8023 437.836 28.7751 440.357 28.7751C442.879 28.7751 444.92 30.8023 444.92 33.3026Z" fill="white"/>
<path d="M438.372 33.9027C438.365 33.8038 438.372 33.705 438.372 33.6061C438.372 33.5637 438.379 33.5142 438.379 33.4719C438.379 33.4436 438.386 33.4224 438.386 33.3942C438.4 33.26 438.365 33.5142 438.386 33.4083C438.407 33.2812 438.429 33.154 438.464 33.034C438.478 32.9704 438.499 32.9068 438.52 32.8432C438.534 32.8079 438.542 32.7726 438.556 32.7373C438.563 32.7232 438.57 32.702 438.577 32.6879C438.605 32.6102 438.577 32.702 438.563 32.7232C438.647 32.589 438.704 32.4336 438.796 32.2994C438.803 32.2853 438.817 32.2782 438.824 32.2641C438.866 32.2076 438.873 32.2429 438.803 32.2923C438.831 32.2782 438.852 32.2288 438.881 32.2005C438.937 32.1369 439.001 32.0734 439.064 32.0169C439.078 32.0027 439.092 31.9957 439.1 31.9886C439.142 31.9462 439.17 31.9674 439.078 32.0027C439.114 31.9886 439.149 31.9533 439.184 31.9321C439.262 31.8827 439.347 31.8332 439.439 31.7908C439.453 31.7838 439.537 31.7485 439.453 31.7838C439.368 31.8191 439.481 31.7696 439.502 31.7696C439.559 31.7485 439.615 31.7343 439.672 31.7131C439.728 31.699 439.792 31.6849 439.848 31.6708C439.869 31.6637 439.891 31.6637 439.912 31.6566C439.933 31.6496 439.954 31.6496 439.975 31.6425C440.032 31.6354 440.018 31.6354 439.947 31.6425C439.997 31.6143 440.095 31.6284 440.152 31.6213C440.223 31.6143 440.3 31.6143 440.371 31.6143C440.533 31.6143 440.689 31.6213 440.851 31.6425C441.105 31.6708 441.346 31.4024 441.339 31.1552C441.324 30.8726 441.127 30.696 440.851 30.6678C439.869 30.5689 438.796 30.7808 438.139 31.5789C437.694 32.1228 437.482 32.7938 437.418 33.486C437.404 33.6202 437.397 33.7544 437.404 33.8886C437.418 34.1429 437.616 34.3901 437.892 34.376C438.139 34.376 438.393 34.1711 438.372 33.9027Z" fill="#090909"/>
<path d="M375.38 189.604H349.629C346.338 189.604 343.671 192.27 343.671 195.561V206.071V209.748V221.267L349.73 215.706H375.38C378.671 215.706 381.338 213.039 381.338 209.748V195.561C381.338 192.27 378.671 189.604 375.38 189.604Z" fill="white" stroke="black" stroke-width="0.642518" stroke-miterlimit="10"/>
<path d="M356.616 203.126C356.616 204.554 355.455 205.714 354.027 205.714C352.599 205.714 351.439 204.554 351.439 203.126C351.439 201.698 352.599 200.537 354.027 200.537C355.455 200.537 356.616 201.698 356.616 203.126Z" fill="white" stroke="black" stroke-width="0.642518" stroke-miterlimit="10"/>
<path d="M365.624 203.126C365.624 204.554 364.464 205.714 363.036 205.714C361.608 205.714 360.447 204.554 360.447 203.126C360.447 201.698 361.608 200.537 363.036 200.537C364.464 200.537 365.624 201.698 365.624 203.126Z" fill="white" stroke="black" stroke-width="0.642518" stroke-miterlimit="10"/>
<path d="M374.635 203.126C374.635 204.554 373.475 205.714 372.047 205.714C370.619 205.714 369.458 204.554 369.458 203.126C369.458 201.698 370.619 200.537 372.047 200.537C373.475 200.537 374.635 201.698 374.635 203.126Z" fill="white" stroke="black" stroke-width="0.642518" stroke-miterlimit="10"/>
<path d="M382.8 181.124H357.05C353.758 181.124 351.092 183.791 351.092 187.082V197.592V201.268V212.788L357.15 207.226H382.8C386.092 207.226 388.758 204.56 388.758 201.268V187.082C388.758 183.791 386.092 181.124 382.8 181.124Z" fill="white" stroke="black" stroke-width="0.642518" stroke-miterlimit="10"/>
<path d="M364.035 194.647C364.035 196.075 362.875 197.235 361.447 197.235C360.018 197.235 358.858 196.075 358.858 194.647C358.858 193.219 360.018 192.058 361.447 192.058C362.875 192.058 364.035 193.219 364.035 194.647Z" fill="white" stroke="black" stroke-width="0.642518" stroke-miterlimit="10"/>
<path d="M373.043 194.647C373.043 196.075 371.882 197.235 370.454 197.235C369.026 197.235 367.866 196.075 367.866 194.647C367.866 193.219 369.026 192.058 370.454 192.058C371.882 192.058 373.043 193.219 373.043 194.647Z" fill="white" stroke="black" stroke-width="0.642518" stroke-miterlimit="10"/>
<path d="M382.054 194.647C382.054 196.075 380.893 197.235 379.465 197.235C378.037 197.235 376.877 196.075 376.877 194.647C376.877 193.219 378.037 192.058 379.465 192.058C380.893 192.058 382.054 193.219 382.054 194.647Z" fill="white" stroke="black" stroke-width="0.642518" stroke-miterlimit="10"/>
<path d="M164.054 71.5238H132.73C128.728 71.5238 125.484 74.768 125.484 78.7699V91.5627V96.0354V110.049L132.855 103.281H164.061C168.063 103.281 171.307 100.037 171.307 96.0354V78.7699C171.3 74.768 168.056 71.5238 164.054 71.5238Z" fill="white" stroke="black" stroke-width="0.847287" stroke-miterlimit="10"/>
<path d="M141.216 87.9726C141.216 89.7161 139.804 91.1211 138.068 91.1211C136.324 91.1211 134.919 89.7087 134.919 87.9726C134.919 86.2365 136.332 84.824 138.068 84.824C139.804 84.824 141.216 86.2365 141.216 87.9726Z" fill="white" stroke="black" stroke-width="0.847287" stroke-miterlimit="10"/>
<path d="M152.174 87.9726C152.174 89.7161 150.762 91.1211 149.026 91.1211C147.282 91.1211 145.877 89.7087 145.877 87.9726C145.877 86.2365 147.29 84.824 149.026 84.824C150.762 84.824 152.174 86.2365 152.174 87.9726Z" fill="white" stroke="black" stroke-width="0.847287" stroke-miterlimit="10"/>
<path d="M163.139 87.9726C163.139 89.7161 161.727 91.1211 159.99 91.1211C158.247 91.1211 156.842 89.7087 156.842 87.9726C156.842 86.2365 158.254 84.824 159.99 84.824C161.727 84.824 163.139 86.2365 163.139 87.9726Z" fill="white" stroke="black" stroke-width="0.847287" stroke-miterlimit="10"/>
<path d="M59.1317 254.368C58.1077 248.667 54.8879 244.93 51.288 242.576C45.1862 238.596 37.0892 238.596 30.9979 242.576C27.398 244.93 24.1782 248.667 23.1542 254.368C21.2751 264.904 30.544 270.562 32.2858 272.684C32.2858 272.684 33.4576 273.655 34.0277 274.806C34.1649 275.091 34.3233 275.999 34.4922 277.213H41.1535H47.8149C47.9943 275.999 48.1421 275.091 48.2794 274.806C48.8389 273.655 50.0212 272.684 50.0212 272.684C51.742 270.562 61.0108 264.904 59.1317 254.368Z" fill="#EEDA36" stroke="black" stroke-width="1.21589" stroke-miterlimit="10"/>
<path d="M38.3454 278.342C38.3454 278.342 38.3454 268.356 37.617 266.931C36.8886 265.505 33.521 260.512 32.9509 259.467C32.3808 258.411 33.5526 257.197 34.45 258.749C35.2206 260.079 38.4827 264.629 39.2111 266.498C39.9395 268.356 40.5623 278.849 40.5623 278.849L38.3454 278.342Z" fill="white"/>
<path d="M43.8762 278.343C43.8762 278.343 43.8762 268.356 44.6046 266.931C45.333 265.505 48.7006 260.512 49.2707 259.467C49.8408 258.411 48.669 257.197 47.7716 258.749C47.001 260.079 43.7389 264.629 43.0105 266.498C42.2821 268.356 41.6593 278.849 41.6593 278.849L43.8762 278.343Z" fill="white"/>
<path d="M48.714 259.129C47.3627 259.762 45.0613 259.836 43.3617 259.319C43.3511 259.33 43.33 259.34 43.3195 259.351C41.9154 260.385 39.9624 259.995 38.5267 258.939C36.7426 259.636 34.2829 259.72 33.9134 259.731L33.9028 258.781C34.9796 258.76 36.5209 258.58 37.7244 258.221C36.732 257.144 36.5209 255.983 37.186 255.191C38.02 254.188 39.0756 254.252 39.7407 254.759C40.543 255.371 40.9231 256.669 40.1736 257.788C40.0046 258.042 39.7724 258.253 39.4979 258.443C40.3952 258.971 41.4615 259.203 42.3166 258.876C42.021 258.707 41.7676 258.496 41.5882 258.263C41.3031 257.894 40.9231 257.134 41.6515 256.12C42.1477 255.434 42.7916 255.117 43.425 255.255C44.0373 255.381 44.5124 255.92 44.6391 256.617C44.7658 257.271 44.5757 257.947 44.1218 258.548C45.5047 258.855 47.2783 258.802 48.3762 258.295L48.714 259.129ZM42.7283 256.321C42.6122 256.405 42.5066 256.522 42.401 256.669C42.0315 257.187 42.1688 257.472 42.3166 257.672C42.5066 257.904 42.8127 258.105 43.1928 258.274C43.6362 257.82 43.8368 257.303 43.7417 256.828C43.6784 256.5 43.4673 256.236 43.2139 256.184C43.0661 256.152 42.8972 256.194 42.7283 256.321ZM38.6956 257.852C39.0123 257.683 39.2551 257.493 39.4029 257.282C39.8357 256.627 39.6246 255.888 39.1707 255.54C38.7695 255.244 38.3156 255.339 37.9144 255.814C37.5132 256.289 37.9566 257.081 38.4528 257.619C38.5267 257.693 38.6112 257.778 38.6956 257.852Z" fill="white"/>
<path d="M41.1105 276.147C37.4895 276.147 34.3964 275.196 33.8791 274.911C33.9213 274.985 33.9635 275.049 33.9952 275.123C34.4808 276.115 35.0826 284.402 36.3916 287.601C36.6239 288.171 36.8772 288.572 37.1517 288.751C37.9012 289.237 39.4531 289.754 41.1105 289.67C42.7679 289.744 44.3197 289.237 45.0693 288.751C45.3438 288.572 45.5971 288.171 45.8294 287.601C47.1278 284.402 47.7401 276.125 48.2258 275.123C48.2574 275.049 48.3102 274.975 48.3419 274.911C47.8246 275.196 44.7315 276.147 41.1105 276.147Z" fill="white" stroke="black" stroke-width="1.21589" stroke-miterlimit="10"/>
<path d="M41.1091 279.894C43.1994 279.862 45.4796 279.609 47.5488 278.954C47.686 277.973 47.8127 277.086 47.9183 276.41C43.5266 278.078 38.6705 278.078 34.2895 276.41C34.4056 277.086 34.5217 277.973 34.6589 278.954C36.7386 279.598 39.0189 279.852 41.1091 279.894Z" fill="black"/>
<path d="M41.1096 284.117C42.9781 284.085 44.9945 283.874 46.8841 283.367C47.0319 282.544 47.1586 281.689 47.2853 280.855C43.2843 282.217 38.9349 282.217 34.9339 280.855C35.0605 281.689 35.1872 282.544 35.335 283.367C37.2247 283.874 39.241 284.085 41.1096 284.117Z" fill="black"/>
<path d="M35.741 285.352C35.9416 286.228 36.1633 287.009 36.4061 287.601C36.4483 287.696 36.4906 287.78 36.5222 287.875C38.053 288.181 39.6365 288.319 41.125 288.35C42.6135 288.329 44.1865 288.181 45.7172 287.875C45.7594 287.791 45.8016 287.706 45.8439 287.601C46.0867 286.999 46.3084 286.228 46.509 285.352C42.983 286.366 39.2459 286.366 35.741 285.352Z" fill="black"/>
<path d="M41.4823 234.268H41.4401C40.3844 234.268 39.5187 233.413 39.5187 232.346V223.341C39.5187 222.286 40.3738 221.42 41.4401 221.42H41.4823C42.538 221.42 43.4036 222.275 43.4036 223.341V232.346C43.3931 233.413 42.538 234.268 41.4823 234.268Z" fill="white" stroke="black" stroke-width="1.21589" stroke-miterlimit="10"/>
<path d="M55.2907 236.759L55.259 236.738C54.3195 236.242 53.9711 235.07 54.4778 234.141L58.7322 226.202C59.2284 225.273 60.4002 224.914 61.3292 225.421L61.3609 225.442C62.2899 225.938 62.6488 227.11 62.1421 228.039L57.8877 235.978C57.3915 236.918 56.2197 237.266 55.2907 236.759Z" fill="white" stroke="black" stroke-width="1.21589" stroke-miterlimit="10"/>
<path d="M27.6316 236.759L27.6633 236.738C28.6028 236.242 28.9512 235.07 28.4445 234.141L24.1901 226.202C23.6939 225.273 22.5221 224.914 21.5931 225.421L21.5615 225.442C20.6325 225.938 20.2735 227.11 20.7803 228.039L25.0346 235.978C25.5308 236.918 26.6921 237.266 27.6316 236.759Z" fill="white" stroke="black" stroke-width="1.21589" stroke-miterlimit="10"/>
<path d="M17.3956 247.327L17.3851 247.369C17.1634 248.403 16.1499 249.068 15.1154 248.857L6.30046 247.01C5.2659 246.788 4.60082 245.775 4.81196 244.74L4.82252 244.698C5.04421 243.663 6.05766 242.998 7.09222 243.209L15.9071 245.057C16.9417 245.268 17.6068 246.292 17.3956 247.327Z" fill="white" stroke="black" stroke-width="1.21589" stroke-miterlimit="10"/>
<path d="M16.9162 261.715L16.9057 261.673C16.6101 260.66 15.5438 260.068 14.5198 260.375L5.88438 262.908C4.87093 263.204 4.27975 264.27 4.5859 265.294L4.59646 265.336C4.89205 266.35 5.95828 266.941 6.98229 266.635L15.6177 264.101C16.6312 263.806 17.2118 262.739 16.9162 261.715Z" fill="white" stroke="black" stroke-width="1.21589" stroke-miterlimit="10"/>
<path d="M65.5235 247.327L65.5341 247.369C65.7558 248.403 66.7692 249.068 67.8038 248.857L76.6187 247.01C77.6533 246.788 78.3183 245.775 78.1072 244.74L78.0966 244.698C77.8749 243.663 76.8615 242.998 75.8269 243.209L67.012 245.057C65.9669 245.268 65.3018 246.292 65.5235 247.327Z" fill="white" stroke="black" stroke-width="1.21589" stroke-miterlimit="10"/>
<path d="M65.9925 261.715L66.0031 261.673C66.2986 260.66 67.3649 260.068 68.3889 260.375L77.0243 262.908C78.0378 263.204 78.629 264.27 78.3228 265.294V265.326C78.0272 266.339 76.961 266.93 75.937 266.624L67.3015 264.091C66.2775 263.806 65.6969 262.739 65.9925 261.715Z" fill="white" stroke="black" stroke-width="1.21589" stroke-miterlimit="10"/>
</svg>
