<svg width="22" height="24" viewBox="0 0 22 24" fill="none" xmlns="http://www.w3.org/2000/svg">
<mask id="mask0_731_4308" style="mask-type:alpha" maskUnits="userSpaceOnUse" x="0" y="0" width="22" height="24">
<path d="M19.4805 24H1.71429C0.767512 24 0 23.2325 0 22.2857V1.71429C0 0.767512 0.767512 0 1.71429 0H13.2468L21.1948 7.94805V22.2857C21.1948 23.2325 20.4273 24 19.4805 24Z" fill="url(#paint0_linear_731_4308)"/>
</mask>
<g mask="url(#mask0_731_4308)">
<path d="M19.4805 24H1.71429C0.767512 24 0 23.2325 0 22.2857V1.71429C0 0.767512 0.767512 0 1.71429 0H13.2468L21.1948 7.94805V22.2857C21.1948 23.2325 20.4273 24 19.4805 24Z" fill="url(#paint1_linear_731_4308)"/>
<mask id="path-3-inside-1_731_4308" fill="white">
<path d="M4.84806 16.9399C4.77008 16.9399 4.70442 16.9132 4.65107 16.8598C4.59772 16.8065 4.57104 16.7408 4.57104 16.6629V12.8955C4.57104 12.8175 4.59772 12.7518 4.65107 12.6985C4.70442 12.641 4.77008 12.6123 4.84806 12.6123H6.25159C6.64146 12.6123 6.95951 12.678 7.20575 12.8093C7.45198 12.9406 7.62845 13.1089 7.73515 13.3141C7.84185 13.5193 7.8952 13.7409 7.8952 13.9789C7.8952 14.2169 7.84185 14.4385 7.73515 14.6437C7.62845 14.8489 7.45198 15.0172 7.20575 15.1485C6.95951 15.2798 6.64146 15.3455 6.25159 15.3455H5.13123V16.6629C5.13123 16.7408 5.1025 16.8065 5.04505 16.8598C4.99169 16.9132 4.92603 16.9399 4.84806 16.9399ZM6.19619 14.8161C6.61479 14.8161 6.90821 14.7361 7.07647 14.576C7.24884 14.416 7.33502 14.2169 7.33502 13.9789C7.33502 13.7409 7.24884 13.5418 7.07647 13.3818C6.90821 13.2217 6.61479 13.1417 6.19619 13.1417H5.13123V14.8161H6.19619Z"/>
<path d="M9.41493 16.9091C9.33695 16.9091 9.27129 16.8824 9.21794 16.8291C9.16459 16.7757 9.13791 16.71 9.13791 16.6321V12.8955C9.13791 12.8175 9.16459 12.7518 9.21794 12.6985C9.27129 12.641 9.33695 12.6123 9.41493 12.6123H10.6523C11.1201 12.6123 11.5161 12.717 11.8403 12.9263C12.1686 13.1314 12.4149 13.3982 12.579 13.7265C12.7432 14.0548 12.8253 14.3996 12.8253 14.7607C12.8253 15.1218 12.7432 15.4666 12.579 15.7949C12.4149 16.1232 12.1686 16.392 11.8403 16.6013C11.5161 16.8065 11.1201 16.9091 10.6523 16.9091H9.41493ZM10.5845 16.3858C10.9211 16.3858 11.2165 16.3181 11.471 16.1827C11.7254 16.0432 11.9224 15.8523 12.0619 15.6102C12.2015 15.364 12.2712 15.0808 12.2712 14.7607C12.2712 14.4406 12.2015 14.1595 12.0619 13.9173C11.9224 13.6711 11.7254 13.4803 11.471 13.3448C11.2165 13.2053 10.9211 13.1356 10.5845 13.1356H9.6981V16.3858H10.5845Z"/>
<path d="M14.4687 16.9399C14.3908 16.9399 14.3251 16.9132 14.2717 16.8598C14.2184 16.8065 14.1917 16.7408 14.1917 16.6629V12.8955C14.1917 12.8175 14.2184 12.7518 14.2717 12.6985C14.3251 12.641 14.3908 12.6123 14.4687 12.6123H16.8634C16.9372 12.6123 16.9988 12.639 17.048 12.6923C17.1014 12.7416 17.1281 12.8031 17.1281 12.877C17.1281 12.9509 17.1014 13.0124 17.048 13.0617C16.9988 13.1109 16.9372 13.1356 16.8634 13.1356H14.7519V14.496H16.6479C16.7218 14.496 16.7833 14.5227 16.8326 14.576C16.8859 14.6253 16.9126 14.6868 16.9126 14.7607C16.9126 14.8346 16.8859 14.8961 16.8326 14.9454C16.7833 14.9946 16.7218 15.0192 16.6479 15.0192H14.7519V16.6629C14.7519 16.7408 14.7232 16.8065 14.6657 16.8598C14.6124 16.9132 14.5467 16.9399 14.4687 16.9399Z"/>
</mask>
<path d="M4.84806 16.9399C4.77008 16.9399 4.70442 16.9132 4.65107 16.8598C4.59772 16.8065 4.57104 16.7408 4.57104 16.6629V12.8955C4.57104 12.8175 4.59772 12.7518 4.65107 12.6985C4.70442 12.641 4.77008 12.6123 4.84806 12.6123H6.25159C6.64146 12.6123 6.95951 12.678 7.20575 12.8093C7.45198 12.9406 7.62845 13.1089 7.73515 13.3141C7.84185 13.5193 7.8952 13.7409 7.8952 13.9789C7.8952 14.2169 7.84185 14.4385 7.73515 14.6437C7.62845 14.8489 7.45198 15.0172 7.20575 15.1485C6.95951 15.2798 6.64146 15.3455 6.25159 15.3455H5.13123V16.6629C5.13123 16.7408 5.1025 16.8065 5.04505 16.8598C4.99169 16.9132 4.92603 16.9399 4.84806 16.9399ZM6.19619 14.8161C6.61479 14.8161 6.90821 14.7361 7.07647 14.576C7.24884 14.416 7.33502 14.2169 7.33502 13.9789C7.33502 13.7409 7.24884 13.5418 7.07647 13.3818C6.90821 13.2217 6.61479 13.1417 6.19619 13.1417H5.13123V14.8161H6.19619Z" fill="white"/>
<path d="M9.41493 16.9091C9.33695 16.9091 9.27129 16.8824 9.21794 16.8291C9.16459 16.7757 9.13791 16.71 9.13791 16.6321V12.8955C9.13791 12.8175 9.16459 12.7518 9.21794 12.6985C9.27129 12.641 9.33695 12.6123 9.41493 12.6123H10.6523C11.1201 12.6123 11.5161 12.717 11.8403 12.9263C12.1686 13.1314 12.4149 13.3982 12.579 13.7265C12.7432 14.0548 12.8253 14.3996 12.8253 14.7607C12.8253 15.1218 12.7432 15.4666 12.579 15.7949C12.4149 16.1232 12.1686 16.392 11.8403 16.6013C11.5161 16.8065 11.1201 16.9091 10.6523 16.9091H9.41493ZM10.5845 16.3858C10.9211 16.3858 11.2165 16.3181 11.471 16.1827C11.7254 16.0432 11.9224 15.8523 12.0619 15.6102C12.2015 15.364 12.2712 15.0808 12.2712 14.7607C12.2712 14.4406 12.2015 14.1595 12.0619 13.9173C11.9224 13.6711 11.7254 13.4803 11.471 13.3448C11.2165 13.2053 10.9211 13.1356 10.5845 13.1356H9.6981V16.3858H10.5845Z" fill="white"/>
<path d="M14.4687 16.9399C14.3908 16.9399 14.3251 16.9132 14.2717 16.8598C14.2184 16.8065 14.1917 16.7408 14.1917 16.6629V12.8955C14.1917 12.8175 14.2184 12.7518 14.2717 12.6985C14.3251 12.641 14.3908 12.6123 14.4687 12.6123H16.8634C16.9372 12.6123 16.9988 12.639 17.048 12.6923C17.1014 12.7416 17.1281 12.8031 17.1281 12.877C17.1281 12.9509 17.1014 13.0124 17.048 13.0617C16.9988 13.1109 16.9372 13.1356 16.8634 13.1356H14.7519V14.496H16.6479C16.7218 14.496 16.7833 14.5227 16.8326 14.576C16.8859 14.6253 16.9126 14.6868 16.9126 14.7607C16.9126 14.8346 16.8859 14.8961 16.8326 14.9454C16.7833 14.9946 16.7218 15.0192 16.6479 15.0192H14.7519V16.6629C14.7519 16.7408 14.7232 16.8065 14.6657 16.8598C14.6124 16.9132 14.5467 16.9399 14.4687 16.9399Z" fill="white"/>
<path d="M4.65107 16.8598L6.06528 15.4456L6.06528 15.4456L4.65107 16.8598ZM4.65107 12.6985L6.06528 14.1127L6.09146 14.0865L6.11666 14.0594L4.65107 12.6985ZM7.73515 13.3141L5.96072 14.2368L5.96072 14.2368L7.73515 13.3141ZM7.73515 14.6437L5.96072 13.721L5.96072 13.721L7.73515 14.6437ZM5.13123 15.3455V13.3455H3.13123V15.3455H5.13123ZM5.04505 16.8598L3.68414 15.3943L3.65701 15.4194L3.63083 15.4456L5.04505 16.8598ZM7.07647 14.576L5.71557 13.1104L5.70676 13.1186L5.69805 13.1269L7.07647 14.576ZM7.07647 13.3818L5.69805 14.8309L5.70676 14.8392L5.71557 14.8474L7.07647 13.3818ZM5.13123 13.1417V11.1417H3.13123V13.1417H5.13123ZM5.13123 14.8161H3.13123V16.8161H5.13123V14.8161ZM9.21794 16.8291L10.6322 15.4148L10.6322 15.4148L9.21794 16.8291ZM9.21794 12.6985L10.6322 14.1127L10.6583 14.0865L10.6835 14.0594L9.21794 12.6985ZM11.8403 12.9263L10.7556 14.6065L10.7679 14.6145L10.7803 14.6222L11.8403 12.9263ZM12.579 13.7265L10.7902 14.6209L10.7902 14.6209L12.579 13.7265ZM12.579 15.7949L10.7902 14.9004L10.7902 14.9004L12.579 15.7949ZM11.8403 16.6013L12.9099 18.2913L12.9154 18.2877L11.8403 16.6013ZM11.471 16.1827L12.4107 17.9482L12.4217 17.9423L12.4326 17.9363L11.471 16.1827ZM12.0619 15.6102L13.7948 16.6088L13.7984 16.6025L13.802 16.5962L12.0619 15.6102ZM12.0619 13.9173L10.3219 14.9034L10.3255 14.9097L10.3291 14.9159L12.0619 13.9173ZM11.471 13.3448L10.5093 15.0985L10.5203 15.1045L10.5313 15.1103L11.471 13.3448ZM9.6981 13.1356V11.1356H7.6981V13.1356H9.6981ZM9.6981 16.3858H7.6981V18.3858H9.6981V16.3858ZM14.2717 16.8598L15.686 15.4456L15.686 15.4456L14.2717 16.8598ZM14.2717 12.6985L15.686 14.1127L15.7121 14.0865L15.7373 14.0594L14.2717 12.6985ZM17.048 12.6923L15.5784 14.0489L15.6327 14.1077L15.6915 14.1619L17.048 12.6923ZM17.048 13.0617L15.6915 11.5921L15.6621 11.6192L15.6338 11.6475L17.048 13.0617ZM14.7519 13.1356V11.1356H12.7519V13.1356H14.7519ZM14.7519 14.496H12.7519V16.496H14.7519V14.496ZM16.8326 14.576L15.363 15.9326L15.4172 15.9914L15.476 16.0456L16.8326 14.576ZM16.8326 14.9454L15.476 13.4758L15.4466 13.5029L15.4184 13.5312L16.8326 14.9454ZM14.7519 15.0192V13.0192H12.7519V15.0192H14.7519ZM14.6657 16.8598L13.3048 15.3943L13.2777 15.4194L13.2515 15.4456L14.6657 16.8598ZM4.84806 14.9399C5.0412 14.9399 5.26394 14.9738 5.49309 15.0669C5.72354 15.1605 5.91537 15.2957 6.06528 15.4456L3.23686 18.2741C3.67908 18.7163 4.25949 18.9399 4.84806 18.9399V14.9399ZM6.06528 15.4456C6.2152 15.5955 6.35036 15.7874 6.44398 16.0178C6.53708 16.247 6.57104 16.4697 6.57104 16.6629H2.57104C2.57104 17.2514 2.79464 17.8318 3.23686 18.2741L6.06528 15.4456ZM6.57104 16.6629V12.8955H2.57104V16.6629H6.57104ZM6.57104 12.8955C6.57104 13.0886 6.53708 13.3114 6.44398 13.5405C6.35036 13.771 6.2152 13.9628 6.06528 14.1127L3.23686 11.2843C2.79464 11.7265 2.57104 12.3069 2.57104 12.8955H6.57104ZM6.11666 14.0594C5.97436 14.2126 5.78319 14.3606 5.54197 14.4662C5.30049 14.5718 5.06048 14.6123 4.84806 14.6123V10.6123C4.21046 10.6123 3.61488 10.8752 3.18548 11.3376L6.11666 14.0594ZM4.84806 14.6123H6.25159V10.6123H4.84806V14.6123ZM6.25159 14.6123C6.29322 14.6123 6.32427 14.6141 6.34581 14.6161C6.36736 14.6181 6.37762 14.6201 6.37816 14.6202C6.37977 14.6206 6.33515 14.6116 6.26457 14.574L8.14692 11.0446C7.51899 10.7097 6.8466 10.6123 6.25159 10.6123V14.6123ZM6.26457 14.574C6.22923 14.5552 6.076 14.4585 5.96072 14.2368L9.50958 12.3914C9.1809 11.7593 8.67473 11.3261 8.14692 11.0446L6.26457 14.574ZM5.96072 14.2368C5.94026 14.1974 5.92263 14.1517 5.91074 14.1023C5.89891 14.0532 5.8952 14.0106 5.8952 13.9789H9.8952C9.8952 13.4294 9.7689 12.89 9.50958 12.3914L5.96072 14.2368ZM5.8952 13.9789C5.8952 13.9472 5.89891 13.9046 5.91074 13.8555C5.92263 13.8061 5.94026 13.7604 5.96072 13.721L9.50958 15.5664C9.7689 15.0678 9.8952 14.5284 9.8952 13.9789H5.8952ZM5.96072 13.721C6.076 13.4993 6.22923 13.4027 6.26457 13.3838L8.14692 16.9132C8.67473 16.6317 9.1809 16.1985 9.50958 15.5664L5.96072 13.721ZM6.26457 13.3838C6.33515 13.3462 6.37977 13.3372 6.37816 13.3376C6.37762 13.3377 6.36736 13.3397 6.34581 13.3417C6.32427 13.3437 6.29322 13.3455 6.25159 13.3455V17.3455C6.8466 17.3455 7.51899 17.2481 8.14692 16.9132L6.26457 13.3838ZM6.25159 13.3455H5.13123V17.3455H6.25159V13.3455ZM3.13123 15.3455V16.6629H7.13123V15.3455H3.13123ZM3.13123 16.6629C3.13123 16.4504 3.17172 16.2104 3.27737 15.9689C3.3829 15.7277 3.5309 15.5365 3.68414 15.3943L6.40595 18.3254C6.86837 17.896 7.13123 17.3005 7.13123 16.6629H3.13123ZM3.63083 15.4456C3.78075 15.2957 3.97257 15.1605 4.20303 15.0669C4.43218 14.9738 4.65491 14.9399 4.84806 14.9399V18.9399C5.43663 18.9399 6.01704 18.7163 6.45926 18.2741L3.63083 15.4456ZM6.19619 16.8161C6.75479 16.8161 7.71203 16.7318 8.4549 16.0251L5.69805 13.1269C5.91667 12.9189 6.12693 12.8476 6.20397 12.8265C6.27944 12.806 6.28928 12.8161 6.19619 12.8161V16.8161ZM8.43738 16.0416C9.02278 15.498 9.33502 14.7655 9.33502 13.9789H5.33502C5.33502 13.8514 5.35934 13.6868 5.43504 13.512C5.51098 13.3366 5.6162 13.2027 5.71557 13.1104L8.43738 16.0416ZM9.33502 13.9789C9.33502 13.1923 9.02278 12.4598 8.43738 11.9162L5.71557 14.8474C5.6162 14.7551 5.51098 14.6212 5.43504 14.4458C5.35934 14.271 5.33502 14.1064 5.33502 13.9789H9.33502ZM8.4549 11.9327C7.71203 11.226 6.75479 11.1417 6.19619 11.1417V15.1417C6.28928 15.1417 6.27944 15.1518 6.20397 15.1313C6.12693 15.1102 5.91667 15.0389 5.69805 14.8309L8.4549 11.9327ZM6.19619 11.1417H5.13123V15.1417H6.19619V11.1417ZM3.13123 13.1417V14.8161H7.13123V13.1417H3.13123ZM5.13123 16.8161H6.19619V12.8161H5.13123V16.8161ZM9.41493 14.9091C9.60807 14.9091 9.8308 14.9431 10.06 15.0361C10.2904 15.1298 10.4822 15.2649 10.6322 15.4148L7.80373 18.2433C8.24595 18.6855 8.82635 18.9091 9.41493 18.9091V14.9091ZM10.6322 15.4148C10.7821 15.5648 10.9172 15.7566 11.0109 15.987C11.1039 16.2162 11.1379 16.4389 11.1379 16.6321H7.13791C7.13791 17.2206 7.3615 17.8011 7.80373 18.2433L10.6322 15.4148ZM11.1379 16.6321V12.8955H7.13791V16.6321H11.1379ZM11.1379 12.8955C11.1379 13.0886 11.1039 13.3114 11.0109 13.5405C10.9172 13.771 10.7821 13.9628 10.6322 14.1127L7.80373 11.2843C7.3615 11.7265 7.13791 12.3069 7.13791 12.8955H11.1379ZM10.6835 14.0594C10.5412 14.2126 10.3501 14.3606 10.1088 14.4662C9.86736 14.5718 9.62735 14.6123 9.41493 14.6123V10.6123C8.77732 10.6123 8.18175 10.8752 7.75235 11.3376L10.6835 14.0594ZM9.41493 14.6123H10.6523V10.6123H9.41493V14.6123ZM10.6523 14.6123C10.7376 14.6123 10.7796 14.6219 10.7892 14.6244C10.7964 14.6263 10.7808 14.6228 10.7556 14.6065L12.9251 11.246C12.2147 10.7874 11.4225 10.6123 10.6523 10.6123V14.6123ZM10.7803 14.6222C10.7924 14.6298 10.7991 14.635 10.8017 14.6371C10.8043 14.6392 10.8038 14.6392 10.8016 14.6368C10.7994 14.6343 10.7967 14.631 10.7941 14.6273C10.7929 14.6255 10.7919 14.624 10.7912 14.6228C10.7905 14.6216 10.7902 14.6209 10.7902 14.6209L14.3679 12.8321C14.03 12.1563 13.5229 11.6193 12.9003 11.2303L10.7803 14.6222ZM10.7902 14.6209C10.8178 14.6763 10.8253 14.7153 10.8253 14.7607H14.8253C14.8253 14.0838 14.6685 13.4334 14.3679 12.8321L10.7902 14.6209ZM10.8253 14.7607C10.8253 14.8061 10.8178 14.8451 10.7902 14.9004L14.3679 16.6893C14.6685 16.088 14.8253 15.4376 14.8253 14.7607H10.8253ZM10.7902 14.9004C10.7899 14.901 10.7906 14.8996 10.7923 14.8971C10.794 14.8946 10.7956 14.8927 10.7965 14.8918C10.7973 14.8909 10.7962 14.8923 10.7919 14.8958C10.7875 14.8994 10.7791 14.906 10.7652 14.9148L12.9154 18.2877C13.5297 17.8962 14.0319 17.3612 14.3679 16.6893L10.7902 14.9004ZM10.7707 14.9113C10.7953 14.8958 10.809 14.8934 10.7986 14.8961C10.7858 14.8993 10.7407 14.9091 10.6523 14.9091V18.9091C11.4154 18.9091 12.2019 18.7394 12.9099 18.2913L10.7707 14.9113ZM10.6523 14.9091H9.41493V18.9091H10.6523V14.9091ZM10.5845 18.3858C11.1937 18.3858 11.822 18.2615 12.4107 17.9482L10.5313 14.4172C10.5674 14.398 10.5967 14.389 10.6118 14.3856C10.6256 14.3824 10.6187 14.3858 10.5845 14.3858V18.3858ZM12.4326 17.9363C12.9955 17.6276 13.465 17.1811 13.7948 16.6088L10.3291 14.6116C10.3504 14.5746 10.3804 14.5349 10.418 14.4984C10.4552 14.4624 10.4888 14.4403 10.5093 14.4291L12.4326 17.9363ZM13.802 16.5962C14.1333 16.0116 14.2712 15.3803 14.2712 14.7607H10.2712C10.2712 14.775 10.2698 14.7641 10.277 14.7347C10.2845 14.7041 10.2987 14.665 10.3219 14.6242L13.802 16.5962ZM14.2712 14.7607C14.2712 14.1418 14.1335 13.5065 13.7948 12.9187L10.3291 14.9159C10.3023 14.8695 10.2862 14.8255 10.2778 14.7915C10.2697 14.759 10.2712 14.7462 10.2712 14.7607H14.2712ZM13.802 12.9313C13.4715 12.3481 12.994 11.8898 12.4107 11.5794L10.5313 15.1103C10.5017 15.0946 10.4607 15.0674 10.418 15.026C10.3751 14.9845 10.3432 14.9409 10.3219 14.9034L13.802 12.9313ZM12.4326 11.5912C11.8394 11.2659 11.2032 11.1356 10.5845 11.1356V15.1356C10.6145 15.1356 10.6171 15.1386 10.599 15.1344C10.5795 15.1298 10.5472 15.1192 10.5093 15.0985L12.4326 11.5912ZM10.5845 11.1356H9.6981V15.1356H10.5845V11.1356ZM7.6981 13.1356V16.3858H11.6981V13.1356H7.6981ZM9.6981 18.3858H10.5845V14.3858H9.6981V18.3858ZM14.4687 14.9399C14.6619 14.9399 14.8846 14.9738 15.1138 15.0669C15.3442 15.1605 15.536 15.2957 15.686 15.4456L12.8575 18.2741C13.2998 18.7163 13.8802 18.9399 14.4687 18.9399V14.9399ZM15.686 15.4456C15.8359 15.5955 15.971 15.7874 16.0647 16.0178C16.1577 16.247 16.1917 16.4697 16.1917 16.6629H12.1917C12.1917 17.2514 12.4153 17.8318 12.8575 18.2741L15.686 15.4456ZM16.1917 16.6629V12.8955H12.1917V16.6629H16.1917ZM16.1917 12.8955C16.1917 13.0886 16.1577 13.3114 16.0647 13.5405C15.971 13.771 15.8359 13.9628 15.686 14.1127L12.8575 11.2843C12.4153 11.7265 12.1917 12.3069 12.1917 12.8955H16.1917ZM15.7373 14.0594C15.595 14.2126 15.4039 14.3606 15.1626 14.4662C14.9212 14.5718 14.6812 14.6123 14.4687 14.6123V10.6123C13.8311 10.6123 13.2356 10.8752 12.8062 11.3376L15.7373 14.0594ZM14.4687 14.6123H16.8634V10.6123H14.4687V14.6123ZM16.8634 14.6123C16.6545 14.6123 16.4143 14.5734 16.1697 14.4674C15.9244 14.3611 15.7271 14.2099 15.5784 14.0489L18.5176 11.3358C18.0823 10.8642 17.4844 10.6123 16.8634 10.6123V14.6123ZM15.6915 14.1619C15.5304 14.0133 15.3793 13.816 15.2729 13.5706C15.167 13.3261 15.1281 13.0858 15.1281 12.877H19.1281C19.1281 12.256 18.8762 11.658 18.4046 11.2227L15.6915 14.1619ZM15.1281 12.877C15.1281 12.6682 15.167 12.4279 15.2729 12.1834C15.3793 11.938 15.5304 11.7407 15.6915 11.5921L18.4046 14.5313C18.8762 14.096 19.1281 13.498 19.1281 12.877H15.1281ZM15.6338 11.6475C15.7909 11.4904 15.9888 11.3535 16.2222 11.2601C16.4531 11.1677 16.6749 11.1356 16.8634 11.1356V15.1356C17.4319 15.1356 18.0134 14.9247 18.4622 14.4759L15.6338 11.6475ZM16.8634 11.1356H14.7519V15.1356H16.8634V11.1356ZM12.7519 13.1356V14.496H16.7519V13.1356H12.7519ZM14.7519 16.496H16.6479V12.496H14.7519V16.496ZM16.6479 16.496C16.4391 16.496 16.1988 16.4571 15.9543 16.3511C15.7089 16.2448 15.5116 16.0936 15.363 15.9326L18.3022 13.2195C17.8669 12.7479 17.2689 12.496 16.6479 12.496V16.496ZM15.476 16.0456C15.315 15.897 15.1638 15.6997 15.0575 15.4543C14.9515 15.2098 14.9126 14.9695 14.9126 14.7607H18.9126C18.9126 14.1397 18.6607 13.5417 18.1891 13.1064L15.476 16.0456ZM14.9126 14.7607C14.9126 14.5519 14.9515 14.3116 15.0575 14.0671C15.1638 13.8217 15.315 13.6244 15.476 13.4758L18.1891 16.415C18.6607 15.9797 18.9126 15.3817 18.9126 14.7607H14.9126ZM15.4184 13.5312C15.5754 13.3741 15.7734 13.2371 16.0067 13.1438C16.2377 13.0514 16.4594 13.0192 16.6479 13.0192V17.0192C17.2165 17.0192 17.7979 16.8084 18.2468 16.3596L15.4184 13.5312ZM16.6479 13.0192H14.7519V17.0192H16.6479V13.0192ZM12.7519 15.0192V16.6629H16.7519V15.0192H12.7519ZM12.7519 16.6629C12.7519 16.4504 12.7924 16.2104 12.898 15.969C13.0036 15.7277 13.1516 15.5366 13.3048 15.3943L16.0266 18.3254C16.4891 17.896 16.7519 17.3004 16.7519 16.6629H12.7519ZM13.2515 15.4456C13.4014 15.2957 13.5932 15.1605 13.8237 15.0669C14.0529 14.9738 14.2756 14.9399 14.4687 14.9399V18.9399C15.0573 18.9399 15.6377 18.7163 16.0799 18.2741L13.2515 15.4456Z" fill="white" mask="url(#path-3-inside-1_731_4308)"/>
<g filter="url(#filter0_d_731_4308)">
<path d="M21.1949 7.94805V7.94805C16.8053 7.94805 13.2468 4.38959 13.2468 0V0L21.1949 7.94805Z" fill="url(#paint2_linear_731_4308)"/>
</g>
</g>
<defs>
<filter id="filter0_d_731_4308" x="-9.75317" y="-24" width="57.948" height="57.9482" filterUnits="userSpaceOnUse" color-interpolation-filters="sRGB">
<feFlood flood-opacity="0" result="BackgroundImageFix"/>
<feColorMatrix in="SourceAlpha" type="matrix" values="0 0 0 0 0 0 0 0 0 0 0 0 0 0 0 0 0 0 127 0" result="hardAlpha"/>
<feOffset dx="2" dy="1"/>
<feGaussianBlur stdDeviation="12.5"/>
<feColorMatrix type="matrix" values="0 0 0 0 0 0 0 0 0 0 0 0 0 0 0 0 0 0 0.33 0"/>
<feBlend mode="normal" in2="BackgroundImageFix" result="effect1_dropShadow_731_4308"/>
<feBlend mode="normal" in="SourceGraphic" in2="effect1_dropShadow_731_4308" result="shape"/>
</filter>
<linearGradient id="paint0_linear_731_4308" x1="10.5974" y1="0" x2="10.5974" y2="24" gradientUnits="userSpaceOnUse">
<stop stop-color="#FF7979"/>
<stop offset="1" stop-color="#E85555"/>
</linearGradient>
<linearGradient id="paint1_linear_731_4308" x1="10.5974" y1="0" x2="10.5974" y2="24" gradientUnits="userSpaceOnUse">
<stop stop-color="#FF7981"/>
<stop offset="1" stop-color="#E85567"/>
</linearGradient>
<linearGradient id="paint2_linear_731_4308" x1="17.2209" y1="0" x2="17.2209" y2="7.94805" gradientUnits="userSpaceOnUse">
<stop stop-color="#D03954"/>
<stop offset="1" stop-color="#C02A3C"/>
</linearGradient>
</defs>
</svg>
