<svg width="22" height="24" viewBox="0 0 22 24" fill="none" xmlns="http://www.w3.org/2000/svg">
<mask id="mask0_731_5104" style="mask-type:alpha" maskUnits="userSpaceOnUse" x="0" y="0" width="22" height="24">
<path d="M19.4805 24H1.71429C0.767512 24 0 23.2325 0 22.2857V1.71429C0 0.767512 0.767512 0 1.71429 0H13.2468L21.1948 7.94805V22.2857C21.1948 23.2325 20.4273 24 19.4805 24Z" fill="url(#paint0_linear_731_5104)"/>
</mask>
<g mask="url(#mask0_731_5104)">
<path d="M19.4805 24H1.71429C0.767512 24 0 23.2325 0 22.2857V1.71429C0 0.767512 0.767512 0 1.71429 0H13.2468L21.1948 7.94805V22.2857C21.1948 23.2325 20.4273 24 19.4805 24Z" fill="url(#paint1_linear_731_5104)"/>
<g opacity="0.82" filter="url(#filter0_f_731_5104)">
<rect x="3.74023" y="11.6104" width="13.8701" height="6.54545" fill="#0F7D56" fill-opacity="0.27" style="mix-blend-mode:darken"/>
</g>
<mask id="path-4-inside-1_731_5104" fill="white">
<path d="M4.97095 16.9399C4.90118 16.9399 4.83962 16.9153 4.78627 16.866C4.73703 16.8127 4.7124 16.7511 4.7124 16.6814C4.7124 16.6157 4.73087 16.5582 4.7678 16.509L6.18981 14.7607L4.78012 13.0248C4.74318 12.9755 4.72471 12.9181 4.72471 12.8524C4.72471 12.7744 4.74934 12.7108 4.79858 12.6616C4.85193 12.6082 4.9176 12.5816 4.99557 12.5816C5.04071 12.5816 5.0838 12.5918 5.12484 12.6123C5.16588 12.6329 5.19871 12.6595 5.22334 12.6924L6.52222 14.3421L7.8211 12.6801C7.86625 12.6144 7.93396 12.5816 8.02425 12.5816C8.09812 12.5816 8.16173 12.6082 8.21508 12.6616C8.26843 12.7108 8.2951 12.7724 8.2951 12.8463C8.2951 12.9037 8.27869 12.955 8.24586 13.0002L6.82386 14.7546L8.24586 16.5028C8.28279 16.5439 8.30126 16.5972 8.30126 16.6629C8.30126 16.7409 8.27459 16.8065 8.22123 16.8599C8.17199 16.9132 8.10633 16.9399 8.02425 16.9399C7.93396 16.9399 7.86009 16.9009 7.80264 16.8229L6.48529 15.167L5.1864 16.8291C5.12484 16.903 5.05303 16.9399 4.97095 16.9399Z"/>
<path d="M9.98734 16.9091C9.88064 16.9091 9.7883 16.8722 9.71032 16.7983C9.63645 16.7203 9.59952 16.628 9.59952 16.5213V12.8647C9.59952 12.7868 9.62619 12.7211 9.67954 12.6677C9.73289 12.6103 9.79856 12.5816 9.87653 12.5816C9.9545 12.5816 10.0202 12.6103 10.0735 12.6677C10.131 12.7211 10.1597 12.7868 10.1597 12.8647V16.3489H12.1727C12.2506 16.3489 12.3163 16.3777 12.3696 16.4351C12.4271 16.4885 12.4558 16.5541 12.4558 16.6321C12.4558 16.7101 12.4271 16.7757 12.3696 16.8291C12.3163 16.8824 12.2506 16.9091 12.1727 16.9091H9.98734Z"/>
<path d="M14.9315 16.9707C14.4103 16.9707 13.922 16.8722 13.4664 16.6752C13.4172 16.6547 13.3762 16.6218 13.3433 16.5767C13.3105 16.5275 13.2941 16.4762 13.2941 16.4228C13.2941 16.353 13.3167 16.2935 13.3618 16.2443C13.411 16.1909 13.4726 16.1643 13.5465 16.1643C13.5875 16.1643 13.6265 16.1725 13.6634 16.1889C14.041 16.3571 14.4452 16.4413 14.8761 16.4413C15.5943 16.4413 15.9534 16.2053 15.9534 15.7334C15.9534 15.6102 15.9062 15.5076 15.8118 15.4256C15.7215 15.3435 15.6087 15.2799 15.4733 15.2347C15.3378 15.1855 15.1449 15.128 14.8946 15.0624C14.5622 14.9762 14.2934 14.8941 14.0882 14.8161C13.883 14.7341 13.7065 14.613 13.5588 14.4529C13.411 14.2929 13.3372 14.0795 13.3372 13.8127C13.3372 13.5788 13.3987 13.3675 13.5218 13.1787C13.645 12.9858 13.8255 12.8339 14.0636 12.7231C14.3057 12.6082 14.595 12.5508 14.9315 12.5508C15.383 12.5508 15.7913 12.6185 16.1566 12.7539C16.2715 12.795 16.3289 12.877 16.3289 13.0002C16.3289 13.0658 16.3063 13.1253 16.2612 13.1787C16.2161 13.232 16.1566 13.2587 16.0827 13.2587C16.0581 13.2587 16.0252 13.2505 15.9842 13.2341C15.6641 13.1233 15.3337 13.0679 14.9931 13.0679C14.6689 13.0679 14.4042 13.1294 14.199 13.2525C13.9979 13.3757 13.8974 13.548 13.8974 13.7696C13.8974 13.9174 13.9446 14.0384 14.0389 14.1328C14.1374 14.2231 14.2585 14.2949 14.4021 14.3483C14.5499 14.3975 14.7489 14.4509 14.9993 14.5083C15.3235 14.5863 15.5841 14.6643 15.781 14.7423C15.9821 14.8202 16.1524 14.9413 16.292 15.1055C16.4356 15.2696 16.5074 15.4912 16.5074 15.7703C16.5074 16.0001 16.4418 16.2074 16.3104 16.392C16.1791 16.5726 15.9944 16.7142 15.7564 16.8168C15.5184 16.9194 15.2434 16.9707 14.9315 16.9707Z"/>
</mask>
<path d="M4.97095 16.9399C4.90118 16.9399 4.83962 16.9153 4.78627 16.866C4.73703 16.8127 4.7124 16.7511 4.7124 16.6814C4.7124 16.6157 4.73087 16.5582 4.7678 16.509L6.18981 14.7607L4.78012 13.0248C4.74318 12.9755 4.72471 12.9181 4.72471 12.8524C4.72471 12.7744 4.74934 12.7108 4.79858 12.6616C4.85193 12.6082 4.9176 12.5816 4.99557 12.5816C5.04071 12.5816 5.0838 12.5918 5.12484 12.6123C5.16588 12.6329 5.19871 12.6595 5.22334 12.6924L6.52222 14.3421L7.8211 12.6801C7.86625 12.6144 7.93396 12.5816 8.02425 12.5816C8.09812 12.5816 8.16173 12.6082 8.21508 12.6616C8.26843 12.7108 8.2951 12.7724 8.2951 12.8463C8.2951 12.9037 8.27869 12.955 8.24586 13.0002L6.82386 14.7546L8.24586 16.5028C8.28279 16.5439 8.30126 16.5972 8.30126 16.6629C8.30126 16.7409 8.27459 16.8065 8.22123 16.8599C8.17199 16.9132 8.10633 16.9399 8.02425 16.9399C7.93396 16.9399 7.86009 16.9009 7.80264 16.8229L6.48529 15.167L5.1864 16.8291C5.12484 16.903 5.05303 16.9399 4.97095 16.9399Z" fill="white"/>
<path d="M9.98734 16.9091C9.88064 16.9091 9.7883 16.8722 9.71032 16.7983C9.63645 16.7203 9.59952 16.628 9.59952 16.5213V12.8647C9.59952 12.7868 9.62619 12.7211 9.67954 12.6677C9.73289 12.6103 9.79856 12.5816 9.87653 12.5816C9.9545 12.5816 10.0202 12.6103 10.0735 12.6677C10.131 12.7211 10.1597 12.7868 10.1597 12.8647V16.3489H12.1727C12.2506 16.3489 12.3163 16.3777 12.3696 16.4351C12.4271 16.4885 12.4558 16.5541 12.4558 16.6321C12.4558 16.7101 12.4271 16.7757 12.3696 16.8291C12.3163 16.8824 12.2506 16.9091 12.1727 16.9091H9.98734Z" fill="white"/>
<path d="M14.9315 16.9707C14.4103 16.9707 13.922 16.8722 13.4664 16.6752C13.4172 16.6547 13.3762 16.6218 13.3433 16.5767C13.3105 16.5275 13.2941 16.4762 13.2941 16.4228C13.2941 16.353 13.3167 16.2935 13.3618 16.2443C13.411 16.1909 13.4726 16.1643 13.5465 16.1643C13.5875 16.1643 13.6265 16.1725 13.6634 16.1889C14.041 16.3571 14.4452 16.4413 14.8761 16.4413C15.5943 16.4413 15.9534 16.2053 15.9534 15.7334C15.9534 15.6102 15.9062 15.5076 15.8118 15.4256C15.7215 15.3435 15.6087 15.2799 15.4733 15.2347C15.3378 15.1855 15.1449 15.128 14.8946 15.0624C14.5622 14.9762 14.2934 14.8941 14.0882 14.8161C13.883 14.7341 13.7065 14.613 13.5588 14.4529C13.411 14.2929 13.3372 14.0795 13.3372 13.8127C13.3372 13.5788 13.3987 13.3675 13.5218 13.1787C13.645 12.9858 13.8255 12.8339 14.0636 12.7231C14.3057 12.6082 14.595 12.5508 14.9315 12.5508C15.383 12.5508 15.7913 12.6185 16.1566 12.7539C16.2715 12.795 16.3289 12.877 16.3289 13.0002C16.3289 13.0658 16.3063 13.1253 16.2612 13.1787C16.2161 13.232 16.1566 13.2587 16.0827 13.2587C16.0581 13.2587 16.0252 13.2505 15.9842 13.2341C15.6641 13.1233 15.3337 13.0679 14.9931 13.0679C14.6689 13.0679 14.4042 13.1294 14.199 13.2525C13.9979 13.3757 13.8974 13.548 13.8974 13.7696C13.8974 13.9174 13.9446 14.0384 14.0389 14.1328C14.1374 14.2231 14.2585 14.2949 14.4021 14.3483C14.5499 14.3975 14.7489 14.4509 14.9993 14.5083C15.3235 14.5863 15.5841 14.6643 15.781 14.7423C15.9821 14.8202 16.1524 14.9413 16.292 15.1055C16.4356 15.2696 16.5074 15.4912 16.5074 15.7703C16.5074 16.0001 16.4418 16.2074 16.3104 16.392C16.1791 16.5726 15.9944 16.7142 15.7564 16.8168C15.5184 16.9194 15.2434 16.9707 14.9315 16.9707Z" fill="white"/>
<path d="M4.78627 16.866L3.31667 18.2226L3.37093 18.2814L3.42971 18.3356L4.78627 16.866ZM4.7678 16.509L3.21625 15.247L3.19142 15.2775L3.16781 15.309L4.7678 16.509ZM6.18981 14.7607L7.74136 16.0227L8.76702 14.7618L7.74237 13.5L6.18981 14.7607ZM4.78012 13.0248L3.18012 14.2248L3.20325 14.2556L3.22755 14.2856L4.78012 13.0248ZM4.79858 12.6616L3.38437 11.2474L3.38437 11.2474L4.79858 12.6616ZM5.12484 12.6123L6.01927 10.8235L6.01927 10.8235L5.12484 12.6123ZM5.22334 12.6924L3.62334 13.8924L3.63741 13.9111L3.65192 13.9296L5.22334 12.6924ZM6.52222 14.3421L4.95081 15.5793L6.52807 17.5827L8.09809 15.5736L6.52222 14.3421ZM7.8211 12.6801L9.39698 13.9116L9.43459 13.8634L9.46919 13.8131L7.8211 12.6801ZM8.21508 12.6616L6.80087 14.0758L6.82914 14.1041L6.85852 14.1312L8.21508 12.6616ZM8.24586 13.0002L9.79958 14.2595L9.83254 14.2188L9.86333 14.1765L8.24586 13.0002ZM6.82386 14.7546L5.27013 13.4952L4.24761 14.7568L5.2723 16.0166L6.82386 14.7546ZM8.24586 16.5028L6.6943 17.7648L6.72584 17.8036L6.75927 17.8408L8.24586 16.5028ZM8.22123 16.8599L6.80702 15.4457L6.77875 15.4739L6.75163 15.5033L8.22123 16.8599ZM7.80264 16.8229L9.41275 15.6365L9.3908 15.6068L9.36777 15.5778L7.80264 16.8229ZM6.48529 15.167L8.05042 13.9219L6.47129 11.9369L4.90941 13.9355L6.48529 15.167ZM5.1864 16.8291L6.72284 18.1095L6.74294 18.0853L6.76227 18.0606L5.1864 16.8291ZM9.71032 16.7983L8.25842 18.1738L8.29559 18.213L8.33483 18.2502L9.71032 16.7983ZM9.67954 12.6677L11.0938 14.082L11.1199 14.0558L11.1451 14.0286L9.67954 12.6677ZM10.0735 12.6677L8.60793 14.0286L8.65834 14.0829L8.71262 14.1333L10.0735 12.6677ZM10.1597 16.3489H8.1597V18.3489H10.1597V16.3489ZM12.3696 16.4351L10.9041 17.796L10.9545 17.8503L11.0087 17.9007L12.3696 16.4351ZM12.3696 16.8291L11.0087 15.3635L10.9816 15.3887L10.9554 15.4149L12.3696 16.8291ZM13.4664 16.6752L14.2603 14.8395L14.248 14.8342L14.2357 14.829L13.4664 16.6752ZM13.3433 16.5767L11.6792 17.6861L11.7019 17.7201L11.7259 17.753L13.3433 16.5767ZM13.3618 16.2443L11.8922 14.8877L11.8875 14.8928L13.3618 16.2443ZM13.6634 16.1889L14.4776 14.3621L14.4757 14.3613L13.6634 16.1889ZM15.8118 15.4256L14.4665 16.9054L14.4828 16.9203L14.4995 16.9348L15.8118 15.4256ZM15.4733 15.2347L14.7898 17.1143L14.8152 17.1236L14.8408 17.1321L15.4733 15.2347ZM14.8946 15.0624L15.402 13.1278L15.3965 13.1264L14.8946 15.0624ZM14.0882 14.8161L13.3454 16.6731L13.3615 16.6795L13.3778 16.6857L14.0882 14.8161ZM13.5588 14.4529L12.0892 15.8095L13.5588 14.4529ZM13.5218 13.1787L15.1971 14.2712L15.2024 14.263L15.2077 14.2547L13.5218 13.1787ZM14.0636 12.7231L14.9076 14.5363L14.9143 14.5332L14.9211 14.53L14.0636 12.7231ZM16.1566 12.7539L15.4612 14.6292L15.4725 14.6334L15.4839 14.6374L16.1566 12.7539ZM16.2612 13.1787L17.788 14.4706L17.788 14.4706L16.2612 13.1787ZM15.9842 13.2341L16.727 11.3771L16.6831 11.3596L16.6384 11.3441L15.9842 13.2341ZM14.199 13.2525L13.17 11.5376L13.1623 11.5422L13.1547 11.5468L14.199 13.2525ZM14.0389 14.1328L12.6247 15.547L12.6555 15.5778L12.6875 15.6071L14.0389 14.1328ZM14.4021 14.3483L13.7058 16.2231L13.7375 16.2349L13.7697 16.2457L14.4021 14.3483ZM14.9993 14.5083L15.4669 12.5638L15.4568 12.5614L15.4466 12.559L14.9993 14.5083ZM15.781 14.7423L15.0449 16.6019L15.058 16.607L15.781 14.7423ZM16.292 15.1055L14.7681 16.4008L14.7774 16.4117L14.7868 16.4225L16.292 15.1055ZM16.3104 16.392L17.9279 17.5684L17.9342 17.5598L17.9404 17.5511L16.3104 16.392ZM15.7564 16.8168L16.5481 18.6534L16.5481 18.6534L15.7564 16.8168ZM4.97095 14.9399C5.17701 14.9399 5.39756 14.9774 5.61523 15.0645C5.83156 15.151 6.00731 15.2713 6.14283 15.3964L3.42971 18.3356C3.83594 18.7106 4.3763 18.9399 4.97095 18.9399V14.9399ZM6.25588 15.5095C6.38097 15.645 6.50129 15.8207 6.58782 16.0371C6.67489 16.2547 6.7124 16.4753 6.7124 16.6814H2.7124C2.7124 17.276 2.94168 17.8164 3.31667 18.2226L6.25588 15.5095ZM6.7124 16.6814C6.7124 17.0177 6.60835 17.3883 6.3678 17.709L3.16781 15.309C2.85338 15.7282 2.7124 16.2137 2.7124 16.6814H6.7124ZM6.31936 17.771L7.74136 16.0227L4.63825 13.4987L3.21625 15.247L6.31936 17.771ZM7.74237 13.5L6.33268 11.764L3.22755 14.2856L4.63724 16.0215L7.74237 13.5ZM6.38011 11.8248C6.62067 12.1455 6.72471 12.5161 6.72471 12.8524H2.72471C2.72471 13.3201 2.8657 13.8056 3.18012 14.2248L6.38011 11.8248ZM6.72471 12.8524C6.72471 13.0254 6.69695 13.2392 6.60832 13.4682C6.51798 13.7016 6.38076 13.9078 6.2128 14.0758L3.38437 11.2474C2.91371 11.718 2.72471 12.3133 2.72471 12.8524H6.72471ZM6.21279 14.0758C6.06288 14.2257 5.87105 14.3609 5.6406 14.4545C5.41145 14.5476 5.18872 14.5816 4.99557 14.5816V10.5816C4.407 10.5816 3.8266 10.8051 3.38437 11.2474L6.21279 14.0758ZM4.99557 14.5816C4.72499 14.5816 4.46237 14.5172 4.23042 14.4012L6.01927 10.8235C5.70524 10.6665 5.35644 10.5816 4.99557 10.5816V14.5816ZM4.23042 14.4012C4.02688 14.2994 3.80604 14.136 3.62334 13.8924L6.82333 11.4924C6.59139 11.1831 6.30488 10.9663 6.01927 10.8235L4.23042 14.4012ZM3.65192 13.9296L4.95081 15.5793L8.09364 13.1049L6.79475 11.4552L3.65192 13.9296ZM8.09809 15.5736L9.39698 13.9116L6.24523 11.4485L4.94635 13.1106L8.09809 15.5736ZM9.46919 13.8131C9.30736 14.0485 9.07484 14.262 8.77829 14.4058C8.49118 14.545 8.22172 14.5816 8.02425 14.5816V10.5816C7.37727 10.5816 6.64551 10.8597 6.17302 11.547L9.46919 13.8131ZM8.02425 14.5816C7.81466 14.5816 7.58402 14.5425 7.35391 14.446C7.12463 14.3498 6.94051 14.2154 6.80087 14.0758L9.62929 11.2474C9.20985 10.8279 8.64112 10.5816 8.02425 10.5816V14.5816ZM6.85852 14.1312C6.69748 13.9825 6.54631 13.7853 6.43999 13.5399C6.33402 13.2954 6.2951 13.0551 6.2951 12.8463H10.2951C10.2951 12.2252 10.0432 11.6273 9.57164 11.192L6.85852 14.1312ZM6.2951 12.8463C6.2951 12.4943 6.40492 12.1311 6.62839 11.8238L9.86333 14.1765C10.1525 13.779 10.2951 13.3131 10.2951 12.8463H6.2951ZM6.69213 11.7408L5.27013 13.4952L8.37758 16.0139L9.79958 14.2595L6.69213 11.7408ZM5.2723 16.0166L6.6943 17.7648L9.79742 15.2408L8.37542 13.4926L5.2723 16.0166ZM6.75927 17.8408C6.40507 17.4472 6.30126 16.9925 6.30126 16.6629H10.3013C10.3013 16.2019 10.1605 15.6405 9.73245 15.1649L6.75927 17.8408ZM6.30126 16.6629C6.30126 16.4697 6.33523 16.247 6.42832 16.0179C6.52194 15.7874 6.6571 15.5956 6.80702 15.4457L9.63545 18.2741C10.0777 17.8319 10.3013 17.2515 10.3013 16.6629H6.30126ZM6.75163 15.5033C6.92151 15.3193 7.1358 15.1671 7.3823 15.067C7.62325 14.9691 7.84754 14.9399 8.02425 14.9399V18.9399C8.58411 18.9399 9.21168 18.7355 9.69084 18.2164L6.75163 15.5033ZM8.02425 14.9399C8.27748 14.9399 8.5609 14.9974 8.83465 15.1419C9.10365 15.2839 9.29116 15.4715 9.41275 15.6365L6.19253 18.0093C6.59496 18.5555 7.24642 18.9399 8.02425 18.9399V14.9399ZM9.36777 15.5778L8.05042 13.9219L4.92015 16.4121L6.2375 18.0681L9.36777 15.5778ZM4.90941 13.9355L3.61053 15.5976L6.76227 18.0606L8.06116 16.3985L4.90941 13.9355ZM3.64996 15.5487C3.75877 15.4182 3.92808 15.2589 4.17167 15.1336C4.42347 15.0041 4.69922 14.9399 4.97095 14.9399V18.9399C5.75116 18.9399 6.35375 18.5524 6.72284 18.1095L3.64996 15.5487ZM9.98734 14.9091C10.1697 14.9091 10.374 14.9417 10.5808 15.0245C10.7874 15.1071 10.9562 15.2236 11.0858 15.3464L8.33483 18.2502C8.78155 18.6734 9.36513 18.9091 9.98734 18.9091V14.9091ZM11.1622 15.4228C11.2851 15.5525 11.4015 15.7212 11.4842 15.9278C11.5669 16.1346 11.5995 16.3389 11.5995 16.5213H7.59952C7.59952 17.1435 7.83521 17.7271 8.25842 18.1738L11.1622 15.4228ZM11.5995 16.5213V12.8647H7.59952V16.5213H11.5995ZM11.5995 12.8647C11.5995 13.0579 11.5655 13.2806 11.4725 13.5098C11.3788 13.7402 11.2437 13.932 11.0938 14.082L8.26533 11.2535C7.82311 11.6957 7.59952 12.2762 7.59952 12.8647H11.5995ZM11.1451 14.0286C11.0028 14.1819 10.8117 14.3299 10.5704 14.4354C10.329 14.5411 10.089 14.5816 9.87653 14.5816V10.5816C9.23893 10.5816 8.64335 10.8444 8.21396 11.3068L11.1451 14.0286ZM9.87653 14.5816C9.66411 14.5816 9.4241 14.5411 9.18262 14.4354C8.9414 14.3299 8.75023 14.1819 8.60793 14.0286L11.5391 11.3068C11.1097 10.8444 10.5141 10.5816 9.87653 10.5816V14.5816ZM8.71262 14.1333C8.55937 13.991 8.41137 13.7999 8.30584 13.5586C8.20019 13.3172 8.1597 13.0772 8.1597 12.8647H12.1597C12.1597 12.2271 11.8969 11.6316 11.4344 11.2022L8.71262 14.1333ZM8.1597 12.8647V16.3489H12.1597V12.8647H8.1597ZM10.1597 18.3489H12.1727V14.3489H10.1597V18.3489ZM12.1727 18.3489C11.9602 18.3489 11.7202 18.3084 11.4788 18.2028C11.2375 18.0973 11.0464 17.9493 10.9041 17.796L13.8352 15.0742C13.4058 14.6118 12.8103 14.3489 12.1727 14.3489V18.3489ZM11.0087 17.9007C10.8555 17.7584 10.7075 17.5672 10.602 17.326C10.4963 17.0845 10.4558 16.8445 10.4558 16.6321H14.4558C14.4558 15.9945 14.193 15.3989 13.7306 14.9695L11.0087 17.9007ZM10.4558 16.6321C10.4558 16.4197 10.4963 16.1797 10.602 15.9382C10.7075 15.697 10.8555 15.5058 11.0087 15.3635L13.7306 18.2947C14.193 17.8653 14.4558 17.2697 14.4558 16.6321H10.4558ZM10.9554 15.4149C11.1054 15.265 11.2972 15.1298 11.5276 15.0362C11.7568 14.9431 11.9795 14.9091 12.1727 14.9091V18.9091C12.7612 18.9091 13.3416 18.6855 13.7839 18.2433L10.9554 15.4149ZM12.1727 14.9091H9.98734V18.9091H12.1727V14.9091ZM14.9315 14.9707C14.6694 14.9707 14.4527 14.9227 14.2603 14.8395L12.6726 18.5109C13.3913 18.8217 14.1513 18.9707 14.9315 18.9707V14.9707ZM14.2357 14.829C14.5413 14.9564 14.7882 15.163 14.9608 15.4004L11.7259 17.753C11.9642 18.0807 12.2931 18.353 12.6972 18.5213L14.2357 14.829ZM15.0074 15.4673C15.1687 15.7093 15.2941 16.0387 15.2941 16.4228H11.2941C11.2941 16.9136 11.4523 17.3457 11.6792 17.6861L15.0074 15.4673ZM15.2941 16.4228C15.2941 16.607 15.2636 16.8175 15.181 17.0352C15.0979 17.2543 14.9763 17.4428 14.8361 17.5957L11.8875 14.8928C11.4881 15.3285 11.2941 15.877 11.2941 16.4228H15.2941ZM14.8314 17.6008C14.6827 17.7619 14.4855 17.9131 14.2401 18.0194C13.9956 18.1254 13.7553 18.1643 13.5465 18.1643V14.1643C12.9255 14.1643 12.3275 14.4162 11.8922 14.8877L14.8314 17.6008ZM13.5465 18.1643C13.3121 18.1643 13.074 18.1155 12.8512 18.0165L14.4757 14.3613C14.179 14.2294 13.8629 14.1643 13.5465 14.1643V18.1643ZM12.8493 18.0157C13.494 18.303 14.1769 18.4413 14.8761 18.4413V14.4413C14.7136 14.4413 14.588 14.4113 14.4776 14.3621L12.8493 18.0157ZM14.8761 18.4413C15.3907 18.4413 16.1242 18.3683 16.7824 17.9357C17.5873 17.4068 17.9534 16.5643 17.9534 15.7334H13.9534C13.9534 15.596 13.9806 15.3785 14.1024 15.1383C14.2282 14.8904 14.409 14.709 14.5857 14.5929C14.8849 14.3963 15.0798 14.4413 14.8761 14.4413V18.4413ZM17.9534 15.7334C17.9534 15.0208 17.6474 14.3713 17.1242 13.9163L14.4995 16.9348C14.3558 16.8098 14.2082 16.6328 14.101 16.3999C13.9935 16.1661 13.9534 15.934 13.9534 15.7334H17.9534ZM17.1572 13.9457C16.8289 13.6472 16.4608 13.4557 16.1057 13.3374L14.8408 17.1321C14.7565 17.104 14.6142 17.0397 14.4665 16.9054L17.1572 13.9457ZM16.1567 13.3551C15.9352 13.2746 15.6731 13.1989 15.402 13.1278L14.3872 16.9969C14.6168 17.0571 14.7404 17.0964 14.7898 17.1143L16.1567 13.3551ZM15.3965 13.1264C15.1002 13.0495 14.9088 12.9884 14.7986 12.9466L13.3778 16.6857C13.678 16.7998 14.0242 16.9028 14.3927 16.9984L15.3965 13.1264ZM14.831 12.9592C14.8607 12.9711 14.8962 12.9891 14.9334 13.0146C14.9706 13.0401 15.0026 13.0685 15.0284 13.0964L12.0892 15.8095C12.442 16.1917 12.8679 16.4821 13.3454 16.6731L14.831 12.9592ZM15.0284 13.0964C15.1485 13.2265 15.2327 13.3745 15.2825 13.5186C15.3303 13.6566 15.3372 13.7628 15.3372 13.8127H11.3372C11.3372 14.4636 11.5277 15.2012 12.0892 15.8095L15.0284 13.0964ZM15.3372 13.8127C15.3372 13.8732 15.3289 13.951 15.3036 14.0381C15.278 14.1257 15.2404 14.2048 15.1971 14.2712L11.8466 12.0861C11.5032 12.6127 11.3372 13.2064 11.3372 13.8127H15.3372ZM15.2077 14.2547C15.1568 14.3345 15.0968 14.4004 15.0368 14.4509C14.9783 14.5001 14.9304 14.5257 14.9076 14.5363L13.2195 10.91C12.6885 11.1572 12.1927 11.5437 11.836 12.1026L15.2077 14.2547ZM14.9211 14.53C14.879 14.5499 14.8528 14.5554 14.8517 14.5556C14.8516 14.5556 14.8762 14.5508 14.9315 14.5508V10.5508C14.3721 10.5508 13.7756 10.646 13.2061 10.9163L14.9211 14.53ZM14.9315 14.5508C15.1827 14.5508 15.3508 14.5882 15.4612 14.6292L16.8519 10.8787C16.2318 10.6488 15.5832 10.5508 14.9315 10.5508V14.5508ZM15.4839 14.6374C15.2374 14.5494 14.9042 14.3601 14.6474 13.9932C14.3916 13.6278 14.3289 13.2538 14.3289 13.0002H18.3289C18.3289 12.6233 18.2375 12.1468 17.9243 11.6993C17.61 11.2504 17.1907 10.9995 16.8292 10.8704L15.4839 14.6374ZM14.3289 13.0002C14.3289 12.5609 14.4953 12.1694 14.7344 11.8868L17.788 14.4706C18.1174 14.0812 18.3289 13.5708 18.3289 13.0002H14.3289ZM14.7344 11.8868C14.8911 11.7017 15.1019 11.5314 15.3646 11.4137C15.6243 11.2973 15.8751 11.2587 16.0827 11.2587V15.2587C16.7066 15.2587 17.3388 15.0014 17.788 14.4706L14.7344 11.8868ZM16.0827 11.2587C16.2819 11.2587 16.437 11.2903 16.5247 11.3123C16.6177 11.3355 16.6874 11.3613 16.727 11.3771L15.2414 15.091C15.3612 15.1389 15.6762 15.2587 16.0827 15.2587V11.2587ZM16.6384 11.3441C16.1067 11.16 15.5551 11.0679 14.9931 11.0679V15.0679C15.1123 15.0679 15.2215 15.0865 15.33 15.1241L16.6384 11.3441ZM14.9931 11.0679C14.4305 11.0679 13.7775 11.173 13.17 11.5376L15.228 14.9675C15.0309 15.0858 14.9073 15.0679 14.9931 15.0679V11.0679ZM13.1547 11.5468C12.4059 12.0053 11.8974 12.7996 11.8974 13.7696H15.8974C15.8974 13.9728 15.8477 14.2293 15.7003 14.4819C15.5562 14.729 15.3735 14.8785 15.2433 14.9582L13.1547 11.5468ZM11.8974 13.7696C11.8974 14.3857 12.1135 15.0358 12.6247 15.547L15.4532 12.7186C15.5962 12.8617 15.7165 13.0404 15.7962 13.2448C15.8743 13.4453 15.8974 13.6287 15.8974 13.7696H11.8974ZM12.6875 15.6071C13.0023 15.8957 13.3552 16.0929 13.7058 16.2231L15.0985 12.4734C15.1618 12.497 15.2726 12.5505 15.3904 12.6585L12.6875 15.6071ZM13.7697 16.2457C14.0044 16.3239 14.2735 16.3938 14.5519 16.4577L15.4466 12.559C15.2243 12.508 15.0953 12.4712 15.0346 12.4509L13.7697 16.2457ZM14.5316 16.4529C14.8099 16.5198 14.9701 16.5722 15.0449 16.6019L16.5171 12.8826C16.198 12.7563 15.837 12.6528 15.4669 12.5638L14.5316 16.4529ZM15.058 16.607C15.0091 16.588 14.9549 16.5601 14.9008 16.5217C14.8467 16.4832 14.8024 16.441 14.7681 16.4008L17.8159 13.8102C17.4606 13.3923 17.015 13.0756 16.5041 12.8775L15.058 16.607ZM14.7868 16.4225C14.5304 16.1295 14.5074 15.8366 14.5074 15.7703H18.5074C18.5074 15.1459 18.3408 14.4098 17.7971 13.7884L14.7868 16.4225ZM14.5074 15.7703C14.5074 15.692 14.5191 15.5967 14.5516 15.494C14.5842 15.3911 14.6308 15.3029 14.6805 15.233L17.9404 17.5511C18.3161 17.0228 18.5074 16.4092 18.5074 15.7703H14.5074ZM14.693 15.2157C14.8046 15.0621 14.927 14.9964 14.9648 14.9801L16.5481 18.6534C17.0619 18.432 17.5536 18.0831 17.9279 17.5684L14.693 15.2157ZM14.9648 14.9801C14.9924 14.9682 15.0078 14.9656 15.0049 14.9661C15.0012 14.9668 14.9783 14.9707 14.9315 14.9707V18.9707C15.4615 18.9707 16.0146 18.8834 16.5481 18.6534L14.9648 14.9801Z" fill="white" mask="url(#path-4-inside-1_731_5104)"/>
<g filter="url(#filter1_d_731_5104)">
<path d="M21.1949 7.94805V7.94805C16.8053 7.94805 13.2468 4.38959 13.2468 0V0L21.1949 7.94805Z" fill="url(#paint2_linear_731_5104)"/>
</g>
</g>
<defs>
<filter id="filter0_f_731_5104" x="-35.2598" y="-27.3896" width="91.8701" height="84.5459" filterUnits="userSpaceOnUse" color-interpolation-filters="sRGB">
<feFlood flood-opacity="0" result="BackgroundImageFix"/>
<feBlend mode="normal" in="SourceGraphic" in2="BackgroundImageFix" result="shape"/>
<feGaussianBlur stdDeviation="19.5" result="effect1_foregroundBlur_731_5104"/>
</filter>
<filter id="filter1_d_731_5104" x="-9.75317" y="-24" width="57.948" height="57.9482" filterUnits="userSpaceOnUse" color-interpolation-filters="sRGB">
<feFlood flood-opacity="0" result="BackgroundImageFix"/>
<feColorMatrix in="SourceAlpha" type="matrix" values="0 0 0 0 0 0 0 0 0 0 0 0 0 0 0 0 0 0 127 0" result="hardAlpha"/>
<feOffset dx="2" dy="1"/>
<feGaussianBlur stdDeviation="12.5"/>
<feColorMatrix type="matrix" values="0 0 0 0 0 0 0 0 0 0 0 0 0 0 0 0 0 0 0.33 0"/>
<feBlend mode="normal" in2="BackgroundImageFix" result="effect1_dropShadow_731_5104"/>
<feBlend mode="normal" in="SourceGraphic" in2="effect1_dropShadow_731_5104" result="shape"/>
</filter>
<linearGradient id="paint0_linear_731_5104" x1="10.5974" y1="0" x2="10.5974" y2="24" gradientUnits="userSpaceOnUse">
<stop stop-color="#FF7979"/>
<stop offset="1" stop-color="#E85555"/>
</linearGradient>
<linearGradient id="paint1_linear_731_5104" x1="10.5974" y1="0" x2="10.5974" y2="24" gradientUnits="userSpaceOnUse">
<stop offset="0.000265127" stop-color="#83CC70"/>
<stop offset="1" stop-color="#61A850"/>
</linearGradient>
<linearGradient id="paint2_linear_731_5104" x1="17.2209" y1="0" x2="17.2209" y2="7.94805" gradientUnits="userSpaceOnUse">
<stop stop-color="#3FAF43"/>
<stop offset="1" stop-color="#0E8312"/>
</linearGradient>
</defs>
</svg>
